<svg xmlns="http://www.w3.org/2000/svg" xmlns:xlink="http://www.w3.org/1999/xlink" xmlns:svg="http://www.w3.org/2000/svg" xml:space="preserve" version="1.1" style="shape-rendering:geometricPrecision; text-rendering:geometricPrecision; image-rendering:optimizeQuality; fill-rule:evenodd; clip-rule:evenodd" viewBox="3640.99 4881 1218.02 1238">
 <defs>
  <style type="text/css">
   <![CDATA[
    .fil4 {fill:#FEFEFE}
    .fil1 {fill:#FEFEFE}
    .fil2 {fill:#373435}
    .fil0 {fill:#282828}
    .fil3 {fill:#FF6A26}
    .fil6 {fill:#FEFEFE;fill-rule:nonzero}
    .fil5 {fill:#373435;fill-rule:nonzero}
   ]]>
  </style>
 </defs>
 <g id="Layer_x0020_1">
  <metadata id="CorelCorpID_0Corel-Layer"/>
 </g>
 <g id="svg2">
  <metadata id="CorelCorpID_1Corel-Layer"/>
  <path class="fil0" d="M4263 4885c131,40 255,99 363,183 45,35 87,74 125,116 35,40 68,82 98,126l7 10 1 12c16,262 -64,498 -221,706l-8 11 -13 5c-118,40 -240,65 -365,65 -125,0 -247,-25 -365,-65l-13 -5 -8 -11c-157,-208 -237,-444 -221,-706l1 -12 7 -10c30,-44 63,-86 98,-126 38,-42 80,-81 125,-116 108,-84 232,-143 363,-183l13 -4 13 4zm-4 15l0 0 -9 -3 -9 3c-129,40 -251,97 -357,180 -45,35 -85,73 -123,115 -35,39 -67,80 -97,124l-5 6 0 8c-16,259 63,490 218,696l5 7 8 3c116,40 237,64 360,64 123,0 244,-24 360,-64l8 -3 5 -7c155,-206 234,-437 218,-696l0 -8 -5 -6c-30,-44 -62,-85 -97,-124 -38,-42 -78,-80 -123,-115 -106,-83 -228,-140 -357,-180z"/>
  <path class="fil1" d="M4259 4900l0 0 -9 -3 -9 3c-129,40 -251,97 -357,180 -45,35 -85,73 -123,115 -35,39 -67,80 -97,124l-5 6 0 8c-16,259 63,490 218,696l5 7 8 3c116,40 237,64 360,64 123,0 244,-24 360,-64l8 -3 5 -7c155,-206 234,-437 218,-696l0 -8 -5 -6c-30,-44 -62,-85 -97,-124 -38,-42 -78,-80 -123,-115 -106,-83 -228,-140 -357,-180z"/>
  <path class="fil2" d="M4252 4920c127,39 247,95 352,177 43,34 83,71 119,112 35,38 66,79 96,122l1 1 0 3c15,253 -62,479 -213,681l-2 2 -2 1c-114,39 -232,63 -353,63 -121,0 -239,-24 -353,-63l-2 -1 -2 -2c-151,-202 -228,-428 -213,-681l0 -3 1 -1c30,-43 61,-84 96,-122 36,-41 76,-78 119,-112 105,-82 225,-138 352,-177l2 -1 2 1z"/>
  <path class="fil3" d="M4250 4928c295,91 447,241 562,407 15,248 -59,473 -212,676 -117,41 -234,63 -350,63 -116,0 -233,-22 -350,-63 -153,-203 -227,-428 -212,-676 115,-166 267,-316 562,-407z"/>
  <path class="fil2" d="M4200 5601c1,-2 2,-4 3,-5 1,-4 3,-8 5,-12 4,-11 8,-24 10,-36 2,-8 2,-16 2,-25 1,-10 0,-20 0,-31 -1,-4 -1,-9 -1,-14l-1 -5 -5 0c-8,1 -17,3 -25,6 -5,2 -11,5 -15,9 -5,5 -8,12 -8,20 1,5 3,10 6,15 7,9 14,19 17,31 1,5 2,12 2,18 1,8 1,17 1,26l0 19 9 -16z"/>
  <path class="fil4" d="M4213 5479c0,0 -26,2 -36,13 -11,10 -6,22 -2,27 5,6 14,19 18,33 3,15 3,46 3,46 0,0 12,-25 17,-51 5,-26 0,-68 0,-68z"/>
  <path class="fil2" d="M4280 5601c-1,-2 -1,-4 -2,-5 -2,-4 -3,-8 -5,-12 -5,-11 -8,-24 -11,-36 -1,-8 -2,-16 -2,-25 0,-10 0,-20 1,-31 0,-4 0,-9 1,-14l0 -5 6 0c7,1 17,3 24,6 6,2 11,5 16,9 5,5 8,12 7,20 0,5 -2,10 -6,15 -7,9 -13,19 -16,31 -2,5 -2,12 -2,18 -1,8 -1,17 -1,26l0 19 -10 -16z"/>
  <path class="fil4" d="M4267 5479c0,0 26,2 37,13 10,10 5,22 1,27 -4,6 -14,19 -17,33 -4,15 -3,46 -3,46 0,0 -13,-25 -17,-51 -5,-26 -1,-68 -1,-68z"/>
  <path class="fil2" d="M4270 5491c1,16 2,33 4,49 1,10 2,20 3,30 3,12 6,24 11,36 1,5 3,10 6,15 5,6 10,12 14,18 11,14 21,29 30,44 6,9 11,18 15,28 8,17 15,36 20,55 2,8 4,16 6,24l0 1 0 1c-1,2 -1,5 -2,8 -2,6 -4,13 -7,19 -9,20 -23,37 -41,49 -50,33 -126,33 -176,0 -18,-12 -32,-29 -41,-49 -3,-6 -5,-13 -7,-19 -1,-3 -1,-6 -2,-8l0 -1 0 -1c2,-8 4,-16 6,-24 5,-19 12,-38 20,-55 4,-10 9,-19 15,-28 9,-15 19,-30 30,-44 4,-6 9,-12 14,-18 3,-5 5,-10 6,-15 5,-12 8,-24 11,-36 1,-10 2,-20 3,-30 2,-16 3,-33 4,-49l-1 -90 30 -39 30 39 -1 90z"/>
  <path class="fil4" d="M4265 5406l-1 85c0,0 3,51 8,79 5,29 17,54 17,54 0,0 41,48 59,89 19,41 25,78 25,78 0,0 -4,44 -47,73 -48,32 -122,32 -170,0 -43,-29 -47,-73 -47,-73 0,0 6,-37 25,-78 18,-41 59,-89 59,-89 0,0 12,-25 17,-54 5,-28 8,-79 8,-79l-1 -85 24 1 24 -1z"/>
  <path class="fil5" d="M4248 5671l0 43c5,1 17,5 26,14 10,9 11,15 10,17l0 0 0 57 1 0c5,0 11,-9 11,-9 1,0 -1,12 -6,15 -5,3 -13,4 -18,-2 -6,-5 -5,-14 -5,-14 0,0 2,3 4,5 1,2 4,4 8,5l0 -57 0 -1 0 0c0,0 1,-3 -9,-12 -7,-7 -17,-11 -22,-12l0 90 -8 0 0 -90c-5,1 -14,5 -21,12 -10,9 -9,12 -9,12l0 0 0 1 0 57c3,-1 7,-3 8,-5 2,-2 3,-5 4,-5 0,0 0,9 -5,14 -5,6 -14,5 -19,2 -5,-3 -6,-15 -6,-15 1,0 6,9 12,9l0 0 0 -57 0 0c0,-2 1,-8 11,-17 8,-9 20,-12 25,-14l0 -43 8 0z"/>
  <path class="fil2" d="M4243 5234c18,0 33,15 33,34 0,20 -15,35 -33,35 -18,0 -33,-15 -33,-35 0,-19 15,-34 33,-34z"/>
  <path class="fil4" d="M4243 5238c15,0 28,14 28,30 0,17 -13,30 -28,30 -16,0 -29,-13 -29,-30 0,-16 13,-30 29,-30z"/>
  <path class="fil2" d="M4283 5315c4,11 1,25 -3,36 -4,12 -9,23 -15,34 -3,6 -8,11 -13,14 -2,2 -5,3 -7,5l-2 0 -2 0c-3,-2 -5,-3 -8,-5 -5,-3 -9,-8 -12,-14 -6,-11 -12,-22 -16,-34 -3,-11 -6,-25 -2,-36 11,-33 69,-33 80,0z"/>
  <path class="fil4" d="M4278 5317c7,21 -11,55 -17,66 -6,11 -18,16 -18,16 0,0 -12,-5 -18,-16 -6,-11 -25,-45 -18,-66 10,-29 62,-29 71,0z"/>
  <path class="fil2" d="M4271 5401c4,16 -12,36 -27,40l-1 1 -1 -1c-15,-4 -31,-24 -27,-40 5,-19 51,-19 56,0z"/>
  <path class="fil4" d="M4266 5402c4,14 -12,32 -23,35 -12,-3 -27,-21 -24,-35 4,-14 44,-14 47,0z"/>
  <path class="fil5" d="M4253 5399c2,0 3,0 5,2 1,1 2,3 2,5 0,1 -1,3 -2,4 -2,2 -3,3 -5,3 -2,0 -4,-1 -5,-3 -2,-1 -2,-3 -2,-4 0,-2 0,-4 2,-5 1,-2 3,-2 5,-2zm3 4l0 0c-1,-1 -2,-2 -3,-2 -1,0 -3,1 -3,2 -1,0 -2,1 -2,3 0,1 1,2 2,3 0,0 2,1 3,1 1,0 2,-1 3,-1 0,-1 1,-2 1,-3 0,-2 -1,-3 -1,-3z"/>
  <path class="fil5" d="M4232 5399c2,0 4,0 5,2 2,1 2,3 2,5 0,1 0,3 -2,4 -1,2 -3,3 -5,3 -2,0 -3,-1 -5,-3 -1,-1 -2,-3 -2,-4 0,-2 1,-4 2,-5 2,-2 3,-2 5,-2zm3 4l0 0c0,-1 -1,-2 -3,-2 -1,0 -2,1 -3,2 0,0 -1,1 -1,3 0,1 1,2 1,3 1,0 2,1 3,1 2,0 3,-1 3,-1 1,-1 2,-2 2,-3 0,-2 -1,-3 -2,-3z"/>
  <path class="fil2" d="M4263 5351c2,1 1,7 -3,13 -3,6 -8,11 -10,10 -2,-2 0,-8 3,-14 4,-6 8,-10 10,-9zm-40 0l0 0c-2,1 -1,7 3,13 3,6 8,11 10,10 2,-2 0,-8 -3,-14 -4,-6 -8,-10 -10,-9z"/>
  <path class="fil5" d="M4291 5638c0,0 -36,-7 -38,-24 0,-8 1,-15 2,-20 1,-4 1,-8 1,-11 -1,-4 -2,-8 -2,-12 0,-5 0,-10 1,-16 0,-5 -2,-8 -3,-10 -3,-4 -5,-7 -3,-14 2,-7 0,-12 -1,-17 -1,-2 -1,-4 -2,-7 0,-2 0,-5 0,-8 0,-3 0,-6 0,-9 -1,4 -2,7 -3,10 -1,2 -1,4 -2,5 -2,5 -3,7 -2,11 0,2 1,3 1,4 2,4 3,6 0,12 -2,3 -3,5 -4,8 0,3 0,6 2,12 3,9 0,13 -3,17 -1,1 -1,2 -2,2l0 0c0,2 2,5 4,8 1,3 3,6 4,8 0,3 -3,8 -6,13 -4,5 -10,12 -13,14 -5,4 -19,12 -19,12l-3 -5c0,0 14,-7 18,-11 3,-2 8,-8 12,-14 3,-3 5,-7 5,-8 0,-2 -2,-4 -3,-6 -3,-5 -5,-9 -4,-12l0 0c1,-2 2,-3 3,-5 1,-2 3,-5 2,-12 -2,-6 -3,-10 -2,-14 0,-4 2,-6 4,-10 1,-3 1,-4 0,-6 0,-2 -1,-3 -2,-5 -1,-7 0,-10 3,-15 0,-1 1,-3 2,-5 3,-8 5,-22 5,-22 0,-3 0,-6 0,-8 1,-2 2,-1 3,-1l2 8c0,0 1,3 3,8 1,3 1,10 1,16 0,3 0,6 0,8 0,2 1,4 1,6 2,5 4,11 1,20 -1,4 0,6 2,8 2,4 5,7 4,15 0,6 -1,10 0,14 0,5 0,8 1,12 1,5 0,9 -1,13 -1,5 -2,11 -1,19 1,12 33,19 33,19l-1 5z"/>
  <path class="fil2" d="M4406 5689c3,3 4,6 6,9 4,7 8,14 10,21 3,8 4,17 2,25 -6,27 -22,46 -51,47 -25,1 -43,-11 -54,-32 -2,-5 -4,-11 -5,-16 -1,-7 -2,-14 -3,-21l0 -1 6 -19 39 -23 50 9 0 1z"/>
  <path class="fil4" d="M4404 5692c0,0 22,31 17,51 -5,21 -18,43 -49,45 -30,1 -44,-20 -49,-31 -6,-10 -8,-36 -8,-36l5 -17 36 -21 48 9z"/>
  <path class="fil2" d="M4420 5736c-3,14 -12,26 -25,32 -4,2 -8,4 -12,5 -11,2 -23,2 -33,0 -9,-2 -18,-7 -23,-14 -1,-3 -3,-5 -4,-7 -4,-9 -8,-18 -10,-27 -2,-5 -3,-9 -4,-14l0 -1 40 -67 3 1c6,3 11,7 17,11 11,8 22,17 32,27 9,11 17,24 19,38 1,6 1,11 0,16z"/>
  <path class="fil4" d="M4350 5647c0,0 76,41 66,88 -10,47 -74,41 -86,22 -12,-20 -17,-46 -17,-46l37 -64z"/>
  <path class="fil2" d="M4322 5670c8,-1 16,-1 24,-2 7,0 16,0 22,2 9,3 19,9 26,15 9,9 16,21 17,34 1,10 -1,18 -7,25 -10,12 -26,18 -41,18 -12,1 -26,-7 -35,-15 -9,-9 -17,-21 -15,-35 0,-10 2,-19 3,-29 1,-3 2,-7 3,-10l0 -2 3 -1z"/>
  <path class="fil4" d="M4322 5674c0,0 34,-4 45,-1 12,4 39,20 41,47 2,27 -26,38 -45,38 -19,1 -49,-21 -47,-46 3,-24 6,-38 6,-38z"/>
  <path class="fil2" d="M4380 5695c8,5 19,14 17,24 -1,7 -5,14 -10,19 -6,7 -15,11 -25,11 -9,0 -19,-2 -27,-7 -7,-4 -13,-11 -16,-19 -1,-2 -1,-4 -1,-6 2,-11 20,-18 29,-21l0 0 32 -1 1 0z"/>
  <path class="fil4" d="M4378 5699c0,0 18,10 16,19 -2,10 -12,26 -32,27 -20,1 -35,-10 -40,-23 -4,-13 26,-22 26,-22l30 -1z"/>
  <path class="fil2" d="M4379 5687c4,4 12,11 14,16 1,6 -2,14 -5,19 -6,9 -16,13 -27,13 -10,0 -20,-2 -28,-6 -3,-2 -7,-5 -10,-7l-1 -2 7 -29 48 -4 2 0z"/>
  <path class="fil4" d="M4376 5690c0,0 12,9 13,14 1,5 -3,27 -28,27 -25,0 -35,-12 -35,-12l6 -24 44 -5z"/>
  <path class="fil2" d="M4362 5672c9,4 24,14 25,24 2,7 -1,14 -6,19 -6,6 -15,9 -24,9 -7,0 -15,-2 -21,-5 -3,-1 -6,-3 -8,-5l-1 0 -10 -34 44 -8 1 0z"/>
  <path class="fil4" d="M4360 5675c0,0 22,11 24,21 1,11 -8,25 -26,24 -19,0 -27,-8 -27,-8l-9 -29 38 -8z"/>
  <path class="fil2" d="M4393 5589c0,0 1,0 2,1 2,1 2,4 1,6 -1,1 -1,2 -2,4 -1,3 -2,7 -3,11 -1,3 -1,7 -1,10 1,5 4,13 8,18l0 0 1 0c0,2 1,4 1,5 0,5 -2,8 -7,8 -5,0 -13,-7 -16,-10 -3,-4 -7,-8 -8,-13 -3,-8 0,-31 1,-40l1 -4 22 4z"/>
  <path class="fil4" d="M4393 5593c1,-1 -8,17 -6,28 2,12 8,20 8,20 0,0 3,7 -2,7 -5,0 -18,-12 -21,-20 -2,-8 2,-39 2,-39l19 4z"/>
  <path class="fil2" d="M4379 5600c-2,7 -3,18 -1,26 2,9 7,19 13,26l0 0 0 1c2,4 1,8 -3,10 -5,3 -14,-1 -19,-4 -1,-1 -3,-2 -4,-4 -5,-6 -12,-28 -14,-36l0 0 1 -34 20 -6 14 11 -7 10z"/>
  <path class="fil4" d="M4376 5598c0,0 -5,15 -2,29 4,14 14,27 14,27 0,0 2,5 -2,6 -3,2 -13,-1 -18,-7 -6,-6 -14,-35 -14,-35l2 -30 15 -5 10 7 -5 8z"/>
  <path class="fil2" d="M4382 5664c1,2 1,3 1,5 -1,3 -3,5 -6,6 -5,1 -14,-4 -18,-6l-1 -1 -22 -38 5 -35 26 -11 -2 7c-1,8 -2,16 -2,24 0,5 0,10 1,15 2,10 11,25 18,33l0 1 0 0z"/>
  <path class="fil4" d="M4362 5590c0,0 -5,26 -2,41 4,15 19,35 19,35 0,0 1,4 -3,5 -4,1 -15,-5 -15,-5l-21 -37 4 -32 18 -7z"/>
  <path class="fil2" d="M4352 5605c-1,2 -1,5 -2,7 -1,7 0,15 2,22 2,9 7,17 13,25 2,3 4,6 6,9 2,2 4,5 4,8 0,13 -12,11 -21,8 -8,-2 -15,-12 -18,-19 -3,-5 -6,-10 -8,-15 -1,-2 -4,-8 -4,-10 0,-12 0,-24 0,-37l0 -4 32 0 -4 6z"/>
  <path class="fil4" d="M4349 5603c0,0 -6,11 -1,32 6,21 23,35 23,41 0,6 -3,8 -16,5 -13,-4 -27,-39 -27,-41 0,-1 0,-37 0,-37l21 0z"/>
  <path class="fil2" d="M4337 5609c0,3 -1,7 -1,11 0,8 1,16 3,23 2,5 6,12 10,17 3,5 8,10 11,15 3,3 7,9 6,13 -1,2 -2,4 -3,6 -4,4 -11,2 -15,1 -8,-2 -17,-14 -22,-20 -5,-8 -10,-17 -15,-25l0 -1 -5 -40 32 -6 -1 6z"/>
  <path class="fil4" d="M4334 5608c0,0 -4,20 2,36 5,16 28,38 26,43 -1,5 -1,8 -13,5 -13,-3 -34,-44 -34,-44l-5 -36 24 -4z"/>
  <path class="fil2" d="M4294 5615c-1,0 -1,-1 -1,-1 0,-4 4,-4 7,-5 2,0 5,0 7,0 4,0 7,-1 11,-1l5 0 -2 5c-1,3 -2,7 -2,10 -1,7 0,14 3,20 1,3 4,7 6,10 3,5 7,9 10,13 5,6 10,12 14,19 3,3 8,10 6,14 -4,12 -20,8 -28,5 -9,-3 -19,-17 -24,-25 -4,-6 -8,-13 -11,-20 -1,-2 -5,-9 -5,-12 0,-2 0,-4 0,-6 1,-4 1,-7 2,-11 0,-3 1,-7 1,-10 0,-1 1,-3 1,-5z"/>
  <path class="fil4" d="M4318 5612c0,0 -7,17 0,32 8,16 39,48 37,54 -3,6 -10,8 -24,3 -15,-5 -38,-51 -38,-54 0,-3 5,-33 4,-33 -1,-1 21,-2 21,-2z"/>
  <path class="fil2" d="M4480 5565c4,-4 9,-8 13,-10 10,-6 21,-11 32,-11 7,0 13,1 19,2 9,2 18,4 26,6 4,1 8,3 12,4l1 0 0 1c3,2 6,4 8,6 3,4 7,10 4,14 -2,3 -6,4 -9,5 -4,1 -9,1 -13,1 -4,1 -9,1 -13,1 -3,0 -6,-1 -10,-1 -3,0 -7,-1 -11,-1 -5,0 -17,-1 -21,0 -2,1 -5,3 -7,4 -4,3 -8,5 -12,8 -5,3 -9,6 -14,8 -3,2 -8,5 -11,4 -9,-1 -15,-8 -12,-17 2,-7 13,-19 18,-24z"/>
  <path class="fil4" d="M4581 5560c0,0 13,11 11,15 -3,4 -22,4 -32,4 -10,1 -35,-4 -43,-1 -8,3 -37,25 -43,24 -5,-1 -10,-5 -8,-12 2,-7 17,-22 17,-22 0,0 19,-19 42,-19 24,0 56,11 56,11z"/>
  <path class="fil2" d="M4593 5538c4,2 7,6 10,9 2,2 4,4 6,7 1,3 3,6 0,9 -5,6 -29,6 -36,5 -6,0 -12,-1 -17,-2 -12,-4 -33,-9 -45,-4 -4,2 -8,5 -11,7 -5,4 -10,8 -15,12 -6,4 -11,9 -17,13 -3,2 -9,7 -13,7 -7,2 -15,-1 -21,-5l-3 -3 2 -3c4,-6 9,-11 13,-17 9,-11 20,-22 32,-31 13,-10 29,-18 45,-18 18,0 35,2 52,6 4,2 9,3 13,5 1,1 3,1 5,2l0 0 0 1z"/>
  <path class="fil4" d="M4591 5541c0,0 18,16 15,19 -2,3 -31,6 -49,2 -19,-5 -36,-8 -48,-3 -12,4 -47,36 -55,38 -8,2 -17,-4 -17,-4 0,0 42,-66 86,-65 45,0 68,13 68,13z"/>
  <path class="fil2" d="M4409 5585c1,-2 2,-3 3,-4 3,-4 6,-8 9,-11 8,-10 17,-21 26,-30 11,-11 29,-27 45,-29 8,-2 16,-2 24,-1 10,0 20,1 30,2 14,2 29,4 43,6 7,2 13,3 20,4l1 0 1 1c3,3 6,5 8,8 3,4 9,10 7,15 -2,3 -6,4 -9,5 -3,0 -8,0 -11,0 -12,-1 -24,-2 -35,-4 -10,-1 -19,-2 -28,-4 -7,-1 -15,-2 -23,-1 -5,0 -10,1 -15,3 -9,3 -21,13 -28,20 -7,7 -13,13 -19,20 -3,3 -5,5 -7,8 -2,1 -3,3 -5,4 -7,4 -16,8 -24,4 -5,-2 -10,-7 -13,-12l-1 -2 1 -2z"/>
  <path class="fil4" d="M4608 5526c0,0 16,14 14,18 -2,4 -24,3 -51,-1 -27,-3 -46,-10 -68,-2 -21,7 -54,49 -59,52 -5,3 -13,8 -20,5 -7,-4 -11,-11 -11,-11 0,0 48,-67 80,-72 31,-5 115,11 115,11z"/>
  <path class="fil2" d="M4412 5548c1,-3 1,-5 2,-8 3,-6 6,-12 10,-18 12,-19 31,-30 53,-33 11,-2 23,-4 34,-5 9,-1 18,-1 27,-1 12,0 25,1 36,5 5,2 9,3 14,4 5,1 11,2 17,2 12,2 25,3 38,4l3 0 1 3c1,4 1,8 1,12 0,7 -2,15 -8,20 -5,4 -17,3 -23,2 -12,-1 -24,-3 -36,-5 -10,-2 -19,-4 -29,-6 -4,0 -8,-1 -12,-1 -3,-1 -6,-1 -9,-1 -12,1 -26,2 -37,7 -9,4 -16,9 -23,16 -7,7 -13,16 -19,24 -9,9 -17,18 -27,25 -5,3 -9,6 -15,7 -6,2 -12,-1 -17,-5 -2,-1 -2,-2 -3,-3 -5,-9 3,-21 8,-27 4,-7 9,-13 14,-18z"/>
  <path class="fil4" d="M4643 5502c0,0 5,19 -5,28 -10,8 -86,-13 -107,-12 -69,2 -66,42 -109,73 -8,6 -15,11 -27,2 -11,-10 21,-43 21,-43 0,0 9,-49 61,-57 52,-8 77,-8 96,-1 19,7 70,10 70,10z"/>
  <path class="fil2" d="M4380 5549c4,-8 9,-15 15,-22 11,-15 25,-30 40,-42 15,-12 33,-21 53,-22 18,-1 37,0 55,1 22,2 44,5 66,8 10,1 20,2 29,4l21 -6 0 5c1,7 0,16 -3,23 -2,5 -5,10 -10,13 -15,9 -66,2 -84,-1 -15,-2 -30,-5 -45,-6 -12,0 -23,0 -35,4 -23,7 -40,27 -55,46 -2,3 -4,7 -7,11 -2,4 -5,9 -8,13 -3,7 -7,13 -12,19 -3,4 -8,10 -14,11 -4,1 -8,1 -11,-1 -9,-5 -12,-18 -12,-27 0,-5 2,-10 4,-14 3,-6 8,-13 13,-17z"/>
  <path class="fil4" d="M4655 5476c0,0 2,24 -11,32 -13,7 -59,2 -81,-2 -67,-11 -97,-12 -139,45 -11,15 -26,50 -39,53 -12,3 -18,-11 -17,-24 0,-14 15,-29 15,-29 0,0 48,-81 105,-84 57,-3 150,13 150,13l17 -4z"/>
  <path class="fil2" d="M4672 5452c3,7 4,18 1,25 -1,1 -2,3 -3,4 -3,4 -9,6 -14,7 -8,2 -17,2 -25,2 -5,0 -9,-1 -13,-1 -5,0 -11,-1 -16,-2 -13,-1 -26,-3 -39,-4 -10,-1 -21,-2 -31,-3 -9,-1 -18,-1 -26,0 -30,2 -60,19 -82,38 -4,4 -9,9 -13,14 -5,7 -10,14 -14,20 -7,10 -13,19 -19,29 -2,3 -5,7 -7,10 -1,2 -3,5 -4,6 -4,4 -6,9 -10,13 -5,5 -11,8 -18,9 -8,0 -19,-3 -26,-7l-4 -2 77 -115 63 -48 85 -15 138 17 0 3z"/>
  <path class="fil4" d="M4668 5453c0,0 5,14 1,22 -4,9 -14,11 -38,11 -25,0 -93,-13 -126,-11 -33,3 -65,23 -84,40 -19,17 -52,73 -58,80 -5,6 -12,19 -24,19 -12,1 -24,-5 -24,-5l74 -111 62 -47 83 -15 134 17z"/>
  <path class="fil2" d="M4625 5428l50 2 1 3c2,6 4,15 3,22 -4,11 -20,14 -30,14 -4,0 -8,-1 -12,-1 -7,-1 -13,-2 -20,-3 -18,-2 -36,-5 -54,-7 -14,-2 -28,-3 -43,-4 -6,-1 -12,-1 -18,-1 -4,0 -9,0 -14,0 -23,3 -50,19 -68,33 -16,12 -31,28 -41,44 -6,9 -11,18 -15,26 -9,15 -17,30 -25,44 -5,6 -14,21 -22,24 -6,3 -12,3 -18,2 -3,0 -6,-1 -9,-2l-3 -2 31 -64 83 -110 87 -42 137 22z"/>
  <path class="fil4" d="M4672 5434c0,0 5,13 3,19 -3,7 -12,12 -26,11 -15,0 -125,-18 -161,-15 -36,4 -91,42 -113,79 -22,37 -47,87 -59,92 -13,5 -24,0 -24,0l29 -60 83 -109 84 -40 137 22 47 1z"/>
  <path class="fil2" d="M4679 5419c3,-1 6,0 8,2 1,2 0,6 0,9 -1,4 -3,8 -6,10 -5,4 -10,5 -15,6 -8,1 -16,0 -24,0 -9,-1 -18,-2 -27,-4 -12,-2 -23,-4 -35,-6 -14,-2 -29,-5 -43,-6 -33,-4 -55,0 -86,13 -14,6 -27,16 -39,25 -9,8 -19,17 -27,25 -7,7 -14,15 -19,22 -5,6 -9,13 -13,19 -6,8 -11,17 -17,25 -5,9 -10,18 -15,26 -4,7 -8,14 -11,21 -6,12 -11,28 -4,41 1,4 5,8 7,10 4,5 8,9 11,13 5,6 10,12 13,18 0,2 1,4 1,6 3,12 1,27 -10,34 -3,2 -7,3 -11,3 -4,0 -7,-1 -10,-4 -6,-4 -8,-11 -9,-17 -2,-8 -3,-15 -5,-23 -2,-6 -3,-9 -8,-13 -3,-3 -5,-5 -7,-9 -3,-6 -4,-13 -4,-20 -4,-32 13,-75 29,-102 45,-71 103,-144 194,-152 10,0 20,1 30,2 11,2 23,5 34,7 11,3 23,7 35,10 9,3 19,6 29,8 17,4 37,4 54,1z"/>
  <path class="fil4" d="M4680 5423c0,0 -26,6 -56,-1 -31,-7 -91,-29 -127,-26 -88,7 -145,77 -190,149 -16,26 -33,68 -29,100 3,31 13,21 19,41 6,20 4,40 20,41 16,0 22,-21 16,-37 -7,-16 -26,-30 -31,-41 -5,-10 -5,-24 4,-45 10,-21 42,-72 56,-91 15,-19 54,-59 87,-74 34,-14 56,-17 89,-14 32,4 84,16 104,17 20,1 30,0 36,-5 6,-5 5,-13 5,-14 0,0 -2,0 -3,0z"/>
  <path class="fil2" d="M4070 5689c-2,3 -4,6 -6,9 -4,7 -7,14 -10,21 -2,8 -4,17 -2,25 7,27 22,46 52,47 24,1 42,-11 53,-32 2,-5 4,-11 5,-16 1,-7 3,-14 3,-21l0 -1 -6 -19 -39 -23 -49 9 -1 1z"/>
  <path class="fil4" d="M4073 5692c0,0 -23,31 -18,51 6,21 18,43 49,45 31,1 44,-20 50,-31 5,-10 8,-36 8,-36l-6 -17 -36 -21 -47 9z"/>
  <path class="fil2" d="M4056 5736c3,14 12,26 25,32 4,2 8,4 13,5 10,2 22,2 32,0 9,-2 19,-7 23,-14 2,-3 3,-5 4,-7 4,-9 8,-18 11,-27 1,-5 2,-9 3,-14l0 -1 -40 -67 -3 1c-5,3 -11,7 -17,11 -11,8 -22,17 -31,27 -10,11 -18,24 -20,38 -1,6 -1,11 0,16z"/>
  <path class="fil4" d="M4126 5647c0,0 -76,41 -66,88 10,47 74,41 86,22 12,-20 17,-46 17,-46l-37 -64z"/>
  <path class="fil2" d="M4155 5670c-9,-1 -17,-1 -25,-2 -7,0 -16,0 -22,2 -9,3 -19,9 -25,15 -10,9 -17,21 -18,34 -1,10 1,18 7,25 10,12 27,18 41,18 12,1 26,-7 35,-15 10,-9 17,-21 16,-35 -1,-10 -3,-19 -4,-29 -1,-3 -2,-7 -2,-10l-1 -2 -2 -1z"/>
  <path class="fil4" d="M4154 5674c0,0 -34,-4 -45,-1 -12,4 -38,20 -41,47 -2,27 26,38 45,38 19,1 50,-21 47,-46 -2,-24 -6,-38 -6,-38z"/>
  <path class="fil2" d="M4096 5695c-7,5 -19,14 -17,24 1,7 5,14 10,19 7,7 15,11 25,11 10,0 19,-2 28,-7 7,-4 12,-11 15,-19 1,-2 1,-4 1,-6 -2,-11 -19,-18 -29,-21l0 0 -32 -1 -1 0z"/>
  <path class="fil4" d="M4098 5699c0,0 -18,10 -16,19 2,10 12,26 32,27 20,1 35,-10 40,-23 4,-13 -26,-22 -26,-22l-30 -1z"/>
  <path class="fil2" d="M4098 5687c-5,4 -13,11 -15,16 -1,6 2,14 5,19 6,9 16,13 27,13 10,0 20,-2 29,-6 3,-2 7,-5 9,-7l1 -2 -7 -29 -48 -4 -1 0z"/>
  <path class="fil4" d="M4100 5690c0,0 -12,9 -13,14 -1,5 3,27 28,27 25,0 35,-12 35,-12l-6 -24 -44 -5z"/>
  <path class="fil2" d="M4114 5672c-8,4 -24,14 -25,24 -1,7 2,14 6,19 7,6 15,9 24,9 7,0 15,-2 22,-5 2,-1 5,-3 7,-5l1 0 10 -34 -44 -8 -1 0z"/>
  <path class="fil4" d="M4116 5675c0,0 -22,11 -24,21 -1,11 9,25 27,24 18,0 27,-8 27,-8l8 -29 -38 -8z"/>
  <path class="fil2" d="M4083 5589c0,0 -1,0 -1,1 -3,1 -2,4 -2,6 1,1 1,2 2,4 1,3 2,7 3,11 1,3 1,7 1,10 -1,5 -4,13 -8,18l0 0 0 0c-1,2 -2,4 -2,5 0,5 3,8 7,8 5,0 13,-7 16,-10 3,-4 7,-8 8,-13 3,-8 0,-31 -1,-40l0 -4 -23 4z"/>
  <path class="fil4" d="M4083 5593c-1,-1 9,17 7,28 -3,12 -9,20 -9,20 0,0 -3,7 2,7 5,0 18,-12 21,-20 2,-8 -1,-39 -1,-39l-20 4z"/>
  <path class="fil2" d="M4097 5600c3,7 4,18 2,26 -3,9 -8,19 -14,26l0 0 0 1c-2,4 -1,8 3,10 6,3 14,-1 19,-4 1,-1 3,-2 4,-4 6,-6 12,-28 15,-36l0 0 -2 -34 -20 -6 -14 11 7 10z"/>
  <path class="fil4" d="M4100 5598c0,0 6,15 2,29 -3,14 -14,27 -14,27 0,0 -2,5 2,6 3,2 13,-1 19,-7 5,-6 13,-35 13,-35l-2 -30 -15 -5 -10 7 5 8z"/>
  <path class="fil2" d="M4094 5664c0,2 0,3 0,5 0,3 2,5 6,6 5,1 13,-4 17,-6l1 -1 22 -38 -4 -35 -26 -11 1 7c1,8 2,16 3,24 0,5 0,10 -2,15 -2,10 -11,25 -17,33l-1 1 0 0z"/>
  <path class="fil4" d="M4114 5590c0,0 6,26 2,41 -3,15 -18,35 -18,35 0,0 -2,4 2,5 5,1 15,-5 15,-5l22 -37 -5 -32 -18 -7z"/>
  <path class="fil2" d="M4124 5605c1,2 2,5 2,7 1,7 0,15 -2,22 -2,9 -7,17 -13,25 -2,3 -4,6 -6,9 -2,2 -4,5 -4,8 0,13 13,11 21,8 8,-2 15,-12 19,-19 3,-5 5,-10 7,-15 1,-2 4,-8 4,-10 0,-12 0,-24 0,-37l0 -4 -32 0 4 6z"/>
  <path class="fil4" d="M4127 5603c0,0 7,11 1,32 -6,21 -23,35 -23,41 0,6 3,8 16,5 13,-4 27,-39 27,-41 0,-1 0,-37 0,-37l-21 0z"/>
  <path class="fil2" d="M4139 5609c1,3 1,7 1,11 0,8 -1,16 -3,23 -2,5 -6,12 -9,17 -4,5 -8,10 -12,15 -2,3 -7,9 -5,13 0,2 1,4 2,6 4,4 11,2 16,1 7,-2 16,-14 21,-20 5,-8 10,-17 15,-25l0 -1 5 -40 -32 -6 1 6z"/>
  <path class="fil4" d="M4143 5608c0,0 3,20 -2,36 -6,16 -29,38 -27,43 2,5 1,8 14,5 12,-3 34,-44 34,-44l4 -36 -23 -4z"/>
  <path class="fil2" d="M4183 5615c0,0 0,-1 0,-1 0,-4 -4,-4 -7,-5 -2,0 -4,0 -7,0 -3,0 -7,-1 -10,-1l-6 0 2 5c1,3 2,7 2,10 1,7 1,14 -2,20 -2,3 -5,7 -7,10 -3,5 -7,9 -10,13 -5,6 -10,12 -14,19 -3,3 -8,10 -6,14 5,12 20,8 29,5 8,-3 18,-17 23,-25 4,-6 8,-13 11,-20 2,-2 5,-9 5,-12 0,-2 0,-4 0,-6 -1,-4 -1,-7 -2,-11 0,-3 -1,-7 -1,-10 0,-1 0,-3 0,-5z"/>
  <path class="fil4" d="M4158 5612c0,0 8,17 0,32 -8,16 -39,48 -36,54 2,6 9,8 23,3 15,-5 38,-51 38,-54 0,-3 -5,-33 -4,-33 2,-1 -21,-2 -21,-2z"/>
  <path class="fil2" d="M3996 5565c-4,-4 -9,-8 -13,-10 -10,-6 -21,-11 -32,-11 -6,0 -13,1 -19,2 -9,2 -17,4 -26,6 -4,1 -8,3 -12,4l-1 0 0 1c-3,2 -5,4 -7,6 -4,4 -8,10 -5,14 2,3 6,4 10,5 4,1 8,1 12,1 5,1 9,1 13,1 3,0 7,-1 10,-1 4,0 7,-1 11,-1 5,0 17,-1 21,0 2,1 6,3 8,4 4,3 8,5 11,8 5,3 10,6 14,8 3,2 8,5 11,4 9,-1 15,-8 13,-17 -2,-7 -14,-19 -19,-24z"/>
  <path class="fil4" d="M3895 5560c0,0 -13,11 -10,15 2,4 21,4 31,4 10,1 36,-4 44,-1 8,3 36,25 42,24 6,-1 11,-5 9,-12 -2,-7 -18,-22 -18,-22 0,0 -19,-19 -42,-19 -23,0 -56,11 -56,11z"/>
  <path class="fil2" d="M3883 5538c-3,2 -6,6 -9,9 -3,2 -5,4 -6,7 -2,3 -4,6 -1,9 5,6 30,6 37,5 5,0 11,-1 16,-2 13,-4 33,-9 46,-4 3,2 7,5 10,7 5,4 10,8 15,12 6,4 12,9 17,13 4,2 9,7 13,7 7,2 15,-1 21,-5l3 -3 -2 -3c-4,-6 -8,-11 -13,-17 -9,-11 -20,-22 -32,-31 -13,-10 -29,-18 -45,-18 -17,0 -35,2 -52,6 -4,2 -8,3 -13,5 -1,1 -3,1 -4,2l-1 0 0 1z"/>
  <path class="fil4" d="M3886 5541c0,0 -19,16 -16,19 3,3 31,6 49,2 19,-5 36,-8 48,-3 12,4 47,36 55,38 8,2 17,-4 17,-4 0,0 -42,-66 -86,-65 -45,0 -67,13 -67,13z"/>
  <path class="fil2" d="M4067 5585c-1,-2 -2,-3 -3,-4 -3,-4 -6,-8 -8,-11 -9,-10 -18,-21 -27,-30 -11,-11 -29,-27 -45,-29 -8,-2 -16,-2 -24,-1 -10,0 -20,1 -30,2 -14,2 -29,4 -43,6 -7,2 -13,3 -20,4l-1 0 -1 1c-3,3 -6,5 -8,8 -3,4 -9,10 -6,15 1,3 5,4 8,5 4,0 8,0 12,0 11,-1 23,-2 35,-4 9,-1 18,-2 27,-4 7,-1 15,-2 23,-1 5,0 10,1 15,3 10,3 21,13 28,20 7,7 13,13 20,20 2,3 4,5 6,8 2,1 4,3 5,4 7,4 16,8 24,4 5,-2 10,-7 13,-12l1 -2 -1 -2z"/>
  <path class="fil4" d="M3868 5526c0,0 -16,14 -14,18 3,4 24,3 51,-1 27,-3 47,-10 68,-2 21,7 55,49 59,52 5,3 13,8 20,5 7,-4 12,-11 12,-11 0,0 -49,-67 -80,-72 -32,-5 -116,11 -116,11z"/>
  <path class="fil2" d="M4064 5548c0,-3 -1,-5 -2,-8 -2,-6 -6,-12 -9,-18 -13,-19 -31,-30 -54,-33 -11,-2 -22,-4 -34,-5 -9,-1 -18,-1 -26,-1 -13,0 -25,1 -37,5 -4,2 -9,3 -13,4 -6,1 -12,2 -18,2 -12,2 -25,3 -38,4l-3 0 -1 3c-1,4 -1,8 -1,12 0,7 2,15 8,20 5,4 17,3 23,2 12,-1 24,-3 36,-5 10,-2 20,-4 30,-6 3,0 7,-1 11,-1 3,-1 6,-1 9,-1 13,1 26,2 38,7 8,4 15,9 22,16 7,7 13,16 20,24 8,9 16,18 26,25 5,3 9,6 15,7 7,2 13,-1 18,-5 1,-1 2,-2 2,-3 5,-9 -3,-21 -7,-27 -5,-7 -10,-13 -15,-18z"/>
  <path class="fil4" d="M3833 5502c0,0 -5,19 5,28 11,8 86,-13 107,-12 69,2 66,42 109,73 8,6 16,11 27,2 11,-10 -21,-43 -21,-43 0,0 -9,-49 -61,-57 -52,-8 -77,-8 -96,-1 -18,7 -70,10 -70,10z"/>
  <path class="fil2" d="M4097 5549c-5,-8 -10,-15 -15,-22 -12,-15 -25,-30 -40,-42 -16,-12 -34,-21 -53,-22 -19,-1 -38,0 -56,1 -22,2 -44,5 -66,8 -10,1 -19,2 -29,4l-21 -6 0 5c0,7 1,16 3,23 2,5 5,10 10,13 15,9 66,2 84,-1 15,-2 30,-5 45,-6 12,0 24,0 35,4 23,7 41,27 55,46 2,3 5,7 7,11 2,4 5,9 8,13 4,7 7,13 12,19 3,4 8,10 14,11 4,1 8,1 12,-1 8,-5 11,-18 11,-27 0,-5 -2,-10 -4,-14 -3,-6 -8,-13 -12,-17z"/>
  <path class="fil4" d="M3821 5476c0,0 -1,24 11,32 13,7 60,2 81,-2 67,-11 97,-12 139,45 11,15 26,50 39,53 13,3 18,-11 18,-24 -1,-14 -16,-29 -16,-29 0,0 -48,-81 -105,-84 -56,-3 -150,13 -150,13l-17 -4z"/>
  <path class="fil2" d="M3804 5452c-2,7 -4,18 0,25 0,1 1,3 2,4 4,4 9,6 15,7 8,2 17,2 25,2 4,0 8,-1 12,-1 6,0 11,-1 16,-2 13,-1 26,-3 39,-4 10,-1 21,-2 32,-3 8,-1 17,-1 26,0 29,2 60,19 81,38 5,4 9,9 13,14 5,7 10,14 14,20 7,10 13,19 19,29 3,3 5,7 7,10 2,2 3,5 5,6 3,4 6,9 9,13 5,5 11,8 18,9 8,0 19,-3 26,-7l4 -2 -77 -115 -63 -48 -85 -15 -137 17 -1 3z"/>
  <path class="fil4" d="M3808 5453c0,0 -4,14 -1,22 4,9 15,11 39,11 24,0 92,-13 125,-11 33,3 65,23 84,40 19,17 52,73 58,80 6,6 12,19 24,19 12,1 24,-5 24,-5l-74 -111 -62 -47 -83 -15 -134 17z"/>
  <path class="fil2" d="M3851 5428l-50 2 -1 3c-2,6 -4,15 -2,22 3,11 19,14 30,14 3,0 8,-1 11,-1 7,-1 14,-2 20,-3 18,-2 36,-5 54,-7 14,-2 28,-3 43,-4 6,-1 12,-1 18,-1 5,0 9,0 14,0 23,3 51,19 69,33 15,12 31,28 41,44 5,9 10,18 15,26 8,15 16,30 25,44 4,6 13,21 21,24 6,3 12,3 19,2 2,0 5,-1 8,-2l4 -2 -31 -64 -84 -110 -86 -42 -138 22z"/>
  <path class="fil4" d="M3804 5434c0,0 -4,13 -2,19 2,7 11,12 26,11 14,0 124,-18 160,-15 36,4 91,42 113,79 22,37 47,87 59,92 13,5 24,0 24,0l-29 -60 -83 -109 -84 -40 -136 22 -48 1z"/>
  <path class="fil2" d="M3797 5419c-3,-1 -6,0 -8,2 -1,2 0,6 0,9 1,4 3,8 7,10 4,4 9,5 14,6 8,1 17,0 24,0 9,-1 18,-2 27,-4 12,-2 23,-4 35,-6 14,-2 29,-5 43,-6 33,-4 55,0 86,13 14,6 27,16 39,25 10,8 19,17 28,25 6,7 13,15 19,22 4,6 9,13 13,19 5,8 11,17 16,25 5,9 10,18 15,26 4,7 8,14 11,21 6,12 11,28 5,41 -2,4 -5,8 -8,10 -4,5 -8,9 -11,13 -5,6 -10,12 -12,18 -1,2 -2,4 -2,6 -3,12 -1,27 10,34 3,2 7,3 11,3 4,0 8,-1 11,-4 5,-4 7,-11 8,-17 2,-8 3,-15 5,-23 2,-6 4,-9 8,-13 3,-3 5,-5 7,-9 3,-6 4,-13 5,-20 3,-32 -13,-75 -30,-102 -45,-71 -103,-144 -194,-152 -10,0 -20,1 -30,2 -11,2 -22,5 -33,7 -12,3 -24,7 -36,10 -9,3 -19,6 -28,8 -18,4 -37,4 -55,1z"/>
  <path class="fil4" d="M3796 5423c0,0 26,6 56,-1 31,-7 91,-29 127,-26 88,7 145,77 190,149 16,26 33,68 29,100 -3,31 -13,21 -19,41 -6,20 -4,40 -20,41 -16,0 -22,-21 -15,-37 6,-16 25,-30 30,-41 6,-10 6,-24 -4,-45 -9,-21 -42,-72 -56,-91 -14,-19 -54,-59 -87,-74 -33,-14 -56,-17 -88,-14 -33,4 -84,16 -105,17 -20,1 -30,0 -36,-5 -5,-5 -5,-13 -5,-14 1,0 2,0 3,0z"/>
  <path class="fil2" d="M4339 5863c2,2 6,3 9,4 4,2 10,3 14,4l7 0c1,1 2,1 2,2 0,1 0,2 -1,2l-5 5c-4,3 -8,6 -12,9 -9,6 -18,12 -28,16 -9,5 -19,8 -30,11 -4,1 -8,3 -12,3l-9 2c0,0 -1,-1 -2,-2 0,0 0,-1 1,-2l5 -6c0,0 0,0 0,0 2,-3 4,-8 4,-11 0,-3 0,-7 0,-10l0 -2c0,-1 1,-2 2,-2l2 -1c8,-3 16,-6 24,-9 8,-4 15,-8 22,-14l2 -1c1,-1 2,-1 3,0l2 2c0,0 0,0 0,0zm0 0l0 0c0,0 0,0 0,0 0,0 0,0 0,0z"/>
  <path class="fil4" d="M4335 5867c0,0 3,3 11,5 9,3 15,4 15,4 0,0 -16,14 -38,25 -22,10 -41,13 -41,13 0,0 4,-5 5,-13 1,-9 1,-11 1,-11 20,-7 30,-10 47,-23z"/>
  <path class="fil2" d="M4142 5863c-2,2 -7,3 -10,4 -4,2 -9,3 -14,4l-7 0c-1,1 -1,1 -2,2 0,1 0,2 1,2l5 5c4,3 8,6 12,9 9,6 18,12 28,16 10,5 20,8 30,11 4,1 8,3 13,3l8 2c1,0 2,-1 2,-2 0,0 0,-1 0,-2l-5 -6c0,0 0,0 0,0 -3,-3 -4,-8 -4,-11 -1,-3 -1,-7 -1,-10l0 -2c0,-1 -1,-2 -2,-2l-2 -1c-8,-3 -16,-6 -24,-9 -8,-4 -15,-8 -22,-14l-2 -1c0,-1 -2,-1 -2,0l-2 2c0,0 0,0 0,0zm0 0l0 0c0,0 0,0 0,0 0,0 0,0 0,0z"/>
  <path class="fil4" d="M4145 5867c0,0 -3,3 -11,5 -8,3 -15,4 -15,4 0,0 17,14 39,25 22,10 40,13 40,13 0,0 -4,-5 -5,-13 0,-9 0,-11 0,-11 -20,-7 -30,-10 -48,-23z"/>
  <path class="fil2" d="M4248 5809c9,10 22,16 36,13 7,-1 13,-5 18,-11l7 -8c1,-1 2,-1 3,-1 2,1 2,2 2,3l-3 11c-8,30 -36,51 -67,51 -31,0 -58,-21 -66,-51l-3 -11c0,-1 0,-2 1,-3 1,0 3,0 3,1l8 8c5,6 11,10 18,11 13,3 26,-3 36,-13l1 -2c1,0 2,0 2,0 1,0 2,0 2,0l2 2z"/>
  <path class="fil4" d="M4306 5815c-8,27 -32,47 -62,47 -29,0 -54,-20 -61,-47 6,6 13,10 21,12 14,3 29,-2 40,-14 12,12 27,17 41,14 8,-2 15,-6 21,-12z"/>
  <path class="fil6" d="M3815 5281l9 -16 36 20c3,2 6,5 9,8 3,2 5,5 6,9 1,3 1,7 1,9 -1,4 -2,9 -5,13 -1,3 -3,5 -5,8 -2,3 -5,5 -7,6 -3,2 -5,3 -9,3 -3,0 -6,0 -9,0 -4,-2 -8,-3 -10,-5l-36 -20 9 -17 37 21c3,2 6,3 9,2 3,0 5,-2 6,-5 2,-3 2,-5 2,-8 -1,-3 -3,-5 -7,-7l-36 -21zm21 -36l0 0 54 43 11 -14 -29 -24 44 6 11 -14 -54 -43 -11 14 30 24 -44 -6 -12 14zm53 -62l0 0 14 -13 47 50 -14 13 -47 -50zm23 -24l0 0 16 -12 42 31 -20 -48 15 -12 24 69 -16 12 -61 -40zm68 -50l0 0 33 60 45 -25 -7 -13 -29 15 -6 -11 25 -15 -6 -12 -26 14 -6 -9 28 -16 -7 -13 -44 25zm88 31l0 0 -25 -64 30 -12c5,-2 10,-3 13,-3 3,0 6,1 9,3 3,2 5,6 7,10 1,3 2,7 1,10 0,3 -1,6 -3,8 -1,2 -3,3 -5,5 2,0 4,0 5,1 1,0 3,1 5,2 2,1 3,2 4,3l15 15 -20 8 -17 -16c-2,-2 -4,-3 -5,-4 -1,0 -3,0 -5,1l-1 0 10 26 -18 7zm3 -45l0 0 8 -3c0,0 2,-1 4,-3 1,0 2,-1 2,-3 0,-1 0,-3 0,-4 -1,-2 -2,-3 -4,-4 -2,-1 -4,0 -7,1l-8 3 5 13zm51 1l0 0c2,7 6,12 11,16 5,3 12,4 22,2 6,-1 11,-3 14,-6 4,-3 6,-6 7,-10 2,-4 2,-9 1,-13 -1,-4 -2,-7 -5,-9 -2,-3 -5,-5 -9,-6 -4,-2 -10,-2 -18,-3 -4,0 -6,0 -7,-1 -1,0 -2,-1 -2,-2 -1,-2 0,-3 1,-4 1,-2 2,-3 4,-3 3,-1 5,0 7,1 2,1 3,3 4,6l17 -5c-2,-7 -5,-12 -10,-14 -5,-2 -11,-3 -19,-1 -6,1 -11,3 -14,6 -3,2 -5,5 -6,9 -1,3 -2,7 -1,10 1,6 4,10 8,12 4,3 11,4 19,5 5,0 9,0 11,2 1,1 2,2 3,4 0,2 0,3 -2,5 -1,2 -3,3 -5,4 -4,0 -7,0 -9,-3 -2,-1 -3,-4 -4,-7l-18 5zm65 -59l0 0 19 -1 4 69 -19 1 -4 -69zm34 -3l0 0 58 1 -1 17 -19 0 -1 52 -19 -1 1 -52 -19 0 0 -17zm98 64l0 0 2 12 19 2 -14 -71 -21 -3 -31 66 19 2 5 -11 21 3zm-2 -15l0 0 -14 -2 10 -24 4 26zm33 9l0 0 18 4c-1,3 -1,6 0,8 1,3 3,5 7,7 2,0 4,0 6,-1 2,0 3,-2 4,-4 0,-1 0,-3 -1,-5 -1,-2 -3,-4 -8,-7 -7,-4 -12,-9 -14,-13 -2,-5 -3,-9 -1,-14 1,-4 3,-7 6,-9 2,-3 6,-4 10,-5 4,0 9,0 15,2 8,3 13,6 16,11 3,4 3,10 2,17l-18 -5c1,-3 1,-5 0,-7 -1,-2 -3,-3 -6,-4 -2,-1 -4,-1 -5,0 -1,1 -2,2 -3,3 0,1 0,2 1,3 0,2 2,3 5,5 7,4 12,8 15,11 3,3 5,6 5,10 1,3 0,7 -1,10 -1,4 -3,8 -7,11 -3,3 -7,5 -11,5 -4,1 -9,0 -15,-2 -10,-3 -16,-7 -18,-13 -3,-5 -3,-11 -2,-18zm137 6l0 0 17 10 -18 32c-4,7 -8,12 -11,15 -3,3 -7,5 -11,6 -5,0 -10,-1 -15,-3 -5,-3 -9,-7 -11,-10 -2,-3 -3,-7 -3,-11 0,-4 1,-8 3,-13l18 6c-2,3 -3,5 -3,6 0,2 0,3 0,5 1,0 1,1 3,2 1,1 3,1 5,0 2,-1 4,-4 6,-7l20 -38zm29 90l0 0 -5 10 16 13 24 -69 -16 -13 -61 41 15 11 10 -7 17 14zm6 -15l0 0 -11 -8 21 -15 -10 23zm59 -7l0 0 17 18 -23 36 37 -22 17 18 -50 48 -11 -11 38 -37 -46 28 -10 -10 30 -45 -38 37 -11 -12 50 -48zm62 71l0 0 -57 38 17 28c1,1 3,3 6,6 2,3 4,4 6,5 2,1 5,2 9,1 3,0 6,-1 9,-3 4,-2 6,-5 7,-9 2,-3 2,-7 0,-11 3,2 5,3 8,3 3,0 7,-1 10,-3 4,-3 7,-6 8,-11 1,-4 0,-9 -3,-14l-20 -30zm-12 31l0 0 11 -7 5 7c1,3 2,5 2,6 -1,2 -2,3 -3,4 -2,1 -4,2 -6,1 -1,0 -3,-1 -4,-4l-5 -7zm-23 15l0 0 12 -8 5 8c2,3 3,6 3,7 -1,2 -2,4 -3,5 -2,1 -4,1 -6,1 -2,-1 -4,-2 -5,-5l-6 -8zm73 17l0 0 9 17 -61 33 -9 -17 61 -33z"/>
 </g>
</svg>