<svg xmlns:svg="http://www.w3.org/2000/svg" xmlns="http://www.w3.org/2000/svg" xmlns:xlink="http://www.w3.org/1999/xlink" version="1.0" id="Layer_1" x="0px" y="0px" style="enable-background:new 0 0 147.2 105.6;" xml:space="preserve" viewBox="29.87 8.2 87.67 89.1">
<style type="text/css">
	.st0{fill-rule:evenodd;clip-rule:evenodd;fill:#222222;}
	.st1{fill-rule:evenodd;clip-rule:evenodd;fill:#FEFEFE;}
	.st2{fill-rule:evenodd;clip-rule:evenodd;fill:#332C2B;}
	.st3{fill-rule:evenodd;clip-rule:evenodd;fill:#FF6A26;}
	.st4{fill:#332C2B;}
	.st5{fill:#FEFEFE;}
</style>
<g id="svg2">
	<path class="st0" d="M74.6,8.5c9.4,2.9,18.3,7.1,26.1,13.2c3.2,2.5,6.2,5.3,9,8.4c2.6,2.8,4.9,5.9,7.1,9l0.5,0.7l0.1,0.9   c1.1,18.8-4.6,35.8-15.9,50.8l-0.6,0.8l-0.9,0.3c-8.4,2.9-17.3,4.7-26.3,4.7s-17.8-1.8-26.3-4.7l-0.9-0.3l-0.6-0.8   c-11.3-15-17-32-15.9-50.8l0.1-0.9l0.5-0.7c2.2-3.1,4.5-6.2,7.1-9c2.7-3,5.7-5.8,9-8.4c7.8-6.1,16.7-10.3,26.1-13.2l0.9-0.3   L74.6,8.5L74.6,8.5z M74.2,9.6L74.2,9.6l-0.6-0.2L73,9.6c-9.3,2.9-18.1,7-25.8,13c-3.2,2.5-6.1,5.2-8.8,8.2c-2.5,2.8-4.8,5.8-7,8.9   l-0.3,0.5l0,0.6C29.9,59.3,35.6,76,46.7,90.8l0.4,0.5l0.6,0.2c8.3,2.9,17,4.6,25.9,4.6c8.8,0,17.5-1.8,25.9-4.6l0.6-0.2l0.4-0.5   c11.1-14.8,16.8-31.5,15.7-50.1l0-0.6l-0.3-0.5c-2.2-3.1-4.4-6.1-7-8.9c-2.7-3-5.6-5.8-8.8-8.2C92.2,16.6,83.5,12.4,74.2,9.6   L74.2,9.6z"/>
	<path class="st1" d="M74.2,9.6L74.2,9.6l-0.6-0.2L73,9.6c-9.3,2.9-18.1,7-25.8,13c-3.2,2.5-6.1,5.2-8.8,8.2c-2.5,2.8-4.8,5.8-7,8.9   l-0.3,0.5l0,0.6C29.9,59.4,35.6,76,46.7,90.8l0.4,0.5l0.6,0.2c8.3,2.9,17,4.6,25.9,4.6c8.8,0,17.5-1.8,25.9-4.6l0.6-0.2l0.4-0.5   c11.1-14.8,16.8-31.5,15.7-50.1l0-0.6l-0.3-0.5c-2.2-3.1-4.4-6.1-7-8.9c-2.7-3-5.6-5.8-8.8-8.2C92.2,16.6,83.5,12.5,74.2,9.6   L74.2,9.6z"/>
	<path class="st2" d="M73.8,11.1c9.1,2.8,17.7,6.8,25.3,12.7c3.1,2.4,6,5.1,8.6,8c2.5,2.7,4.8,5.7,6.9,8.8l0.1,0.1v0.2   c1.1,18.2-4.4,34.5-15.4,49.1l-0.1,0.1L99,90.2c-8.2,2.8-16.7,4.6-25.4,4.6c-8.7,0-17.2-1.7-25.4-4.6L48,90.1L47.9,90   C36.9,75.4,31.4,59.1,32.5,40.9v-0.2l0.1-0.1c2.1-3.1,4.4-6,6.9-8.8c2.6-2.9,5.5-5.6,8.6-8c7.6-5.9,16.2-9.9,25.3-12.7l0.2-0.1   L73.8,11.1L73.8,11.1z"/>
	<path class="st3" d="M73.6,11.6c21.2,6.5,32.2,17.4,40.5,29.3c1.1,17.9-4.2,34-15.2,48.7c-8.4,2.9-16.8,4.5-25.2,4.5   c-8.4-0.1-16.8-1.6-25.2-4.5C37.3,74.9,32,58.8,33.1,40.9C41.4,28.9,52.4,18.1,73.6,11.6z"/>
	<path class="st2" d="M70,60c0.1-0.1,0.1-0.2,0.2-0.3c0.1-0.3,0.3-0.5,0.4-0.8c0.3-0.8,0.6-1.7,0.8-2.6c0.1-0.6,0.1-1.2,0.2-1.8   c0-0.7,0-1.5-0.1-2.2c0-0.3,0-0.7-0.1-1l0-0.4l-0.4,0c-0.6,0.1-1.2,0.2-1.8,0.4c-0.4,0.1-0.8,0.4-1.1,0.7c-0.4,0.4-0.6,0.9-0.5,1.4   c0,0.4,0.2,0.7,0.4,1c0.5,0.7,1,1.4,1.2,2.2c0.1,0.4,0.1,0.9,0.2,1.3c0,0.6,0,1.2,0,1.9v1.4L70,60L70,60z"/>
	<path class="st1" d="M71,51.2c0,0-1.9,0.1-2.6,0.9c-0.8,0.8-0.4,1.6-0.1,2c0.3,0.4,1,1.3,1.3,2.4s0.2,3.3,0.2,3.3s0.9-1.8,1.2-3.7   C71.3,54.3,71,51.3,71,51.2L71,51.2z"/>
	<path class="st2" d="M75.8,60c-0.1-0.1-0.1-0.2-0.2-0.3c-0.1-0.3-0.3-0.5-0.4-0.8c-0.3-0.8-0.6-1.7-0.8-2.6   c-0.1-0.6-0.1-1.2-0.2-1.8c0-0.7,0-1.5,0.1-2.2c0-0.3,0-0.7,0.1-1l0-0.4l0.4,0c0.6,0.1,1.2,0.2,1.8,0.4c0.4,0.1,0.8,0.4,1.1,0.7   c0.4,0.4,0.6,0.9,0.6,1.4c0,0.4-0.2,0.7-0.4,1c-0.5,0.7-1,1.4-1.2,2.2c-0.1,0.4-0.1,0.9-0.2,1.3c0,0.6,0,1.2,0,1.9v1.4L75.8,60   L75.8,60z"/>
	<path class="st1" d="M74.8,51.2c0,0,1.9,0.1,2.6,0.9c0.8,0.8,0.4,1.6,0.1,2c-0.3,0.4-1,1.3-1.3,2.4c-0.3,1-0.2,3.3-0.2,3.3   s-0.9-1.8-1.2-3.7C74.5,54.3,74.8,51.3,74.8,51.2L74.8,51.2z"/>
	<path class="st2" d="M75,52.1c0.1,1.2,0.1,2.4,0.3,3.6c0.1,0.7,0.1,1.4,0.3,2.1c0.2,0.9,0.4,1.8,0.7,2.6c0.1,0.3,0.3,0.7,0.5,1   c0.4,0.4,0.7,0.9,1,1.3c0.8,1,1.5,2,2.2,3.1c0.4,0.7,0.8,1.3,1.1,2c0.6,1.3,1.1,2.6,1.4,4c0.1,0.6,0.3,1.2,0.4,1.8v0.1v0.1   c0,0.2-0.1,0.4-0.1,0.6c-0.1,0.5-0.3,0.9-0.5,1.4c-0.7,1.4-1.7,2.7-3,3.5c-3.6,2.4-9.1,2.4-12.6,0c-1.3-0.9-2.4-2.1-3-3.5   c-0.2-0.5-0.4-0.9-0.5-1.4c-0.1-0.2-0.1-0.4-0.1-0.6v-0.1v-0.1c0.1-0.6,0.3-1.2,0.4-1.8c0.4-1.4,0.9-2.7,1.4-4   c0.3-0.7,0.7-1.4,1.1-2c0.7-1.1,1.4-2.1,2.2-3.1c0.3-0.5,0.7-0.9,1-1.3c0.2-0.3,0.3-0.7,0.5-1.1c0.3-0.9,0.6-1.7,0.7-2.6   c0.1-0.7,0.2-1.4,0.3-2.1c0.1-1.2,0.2-2.4,0.3-3.6l-0.1-6.5l2.2-2.7l2.1,2.7L75,52.1L75,52.1z"/>
	<path class="st1" d="M74.7,46l-0.1,6.1c0,0,0.2,3.6,0.6,5.7s1.2,3.8,1.2,3.8s2.9,3.5,4.3,6.4c1.4,2.9,1.8,5.6,1.8,5.6   S82.1,77,79,79c-3.4,2.3-8.8,2.3-12.2,0c-3.1-2-3.4-5.2-3.4-5.2s0.5-2.7,1.8-5.6c1.4-2.9,4.3-6.4,4.3-6.4s0.9-1.7,1.2-3.8   c0.4-2.1,0.6-5.7,0.6-5.7L71.2,46l1.8,0.1L74.7,46L74.7,46z"/>
	<path class="st4" d="M73.5,65.1v3.1c0.4,0.1,1.2,0.4,1.9,1c0.7,0.7,0.8,1.1,0.8,1.2l0,0v4.1h0c0.4,0,0.8-0.7,0.8-0.6   c0.1,0-0.1,0.8-0.4,1c-0.4,0.2-1,0.3-1.3-0.1c-0.4-0.4-0.4-1-0.3-1c0,0,0.1,0.2,0.3,0.4c0.1,0.1,0.3,0.3,0.6,0.3v-4.1v0v0   c0,0,0.1-0.2-0.7-0.9c-0.5-0.5-1.2-0.7-1.6-0.9v6.5h-0.5v-6.5c-0.4,0.1-1,0.3-1.6,0.8c-0.7,0.7-0.7,0.9-0.7,0.9v0v0v4.1   c0.3-0.1,0.5-0.3,0.6-0.3c0.1-0.1,0.2-0.4,0.3-0.4s0.1,0.6-0.3,1c-0.4,0.4-1,0.3-1.3,0.1c-0.4-0.2-0.5-1-0.4-1c0,0,0.4,0.6,0.8,0.6   h0v-4.1l0,0c0-0.1,0.1-0.5,0.8-1.2c0.6-0.6,1.5-0.9,1.8-1v-3.1L73.5,65.1L73.5,65.1z"/>
	<path class="st2" d="M73.1,33.6c1.3,0,2.4,1.1,2.4,2.5c0,1.4-1.1,2.5-2.4,2.5s-2.4-1.1-2.4-2.5C70.7,34.7,71.8,33.6,73.1,33.6z"/>
	<path class="st1" d="M73.1,34c1.1,0,2,1,2,2.2c0,1.2-0.9,2.2-2,2.2c-1.1,0-2-1-2-2.2C71,34.9,72,34,73.1,34z"/>
	<path class="st2" d="M76,39.5c0.3,0.8,0.1,1.8-0.2,2.6c-0.3,0.9-0.7,1.7-1.1,2.5c-0.2,0.4-0.5,0.7-0.9,1c-0.2,0.1-0.4,0.2-0.5,0.3   l-0.1,0.1l-0.1-0.1c-0.2-0.1-0.4-0.2-0.5-0.3c-0.4-0.3-0.7-0.6-0.9-1c-0.5-0.8-0.9-1.6-1.1-2.5c-0.3-0.8-0.5-1.8-0.2-2.6   C71,37.1,75.2,37.1,76,39.5z"/>
	<path class="st1" d="M75.6,39.6c0.5,1.5-0.9,4-1.3,4.8c-0.4,0.8-1.3,1.2-1.3,1.2s-0.9-0.4-1.3-1.2s-1.8-3.3-1.3-4.8   C71.2,37.5,75,37.5,75.6,39.6L75.6,39.6z"/>
	<path class="st2" d="M75.1,45.7c0.3,1.1-0.9,2.6-2,2.9l-0.1,0l-0.1,0c-1-0.3-2.2-1.8-2-2.9C71.4,44.3,74.8,44.3,75.1,45.7   L75.1,45.7z"/>
	<path class="st1" d="M74.8,45.7c0.2,1-0.9,2.2-1.7,2.5c-0.9-0.2-2-1.5-1.7-2.5C71.7,44.7,74.5,44.7,74.8,45.7z"/>
	<path class="st4" d="M73.8,45.5c0.1,0,0.3,0.1,0.4,0.1c0.1,0.1,0.1,0.2,0.1,0.4c0,0.1-0.1,0.3-0.1,0.4c-0.1,0.1-0.2,0.1-0.4,0.1   s-0.3-0.1-0.4-0.1c-0.1-0.1-0.1-0.2-0.1-0.4c0-0.1,0.1-0.3,0.1-0.4C73.5,45.5,73.7,45.5,73.8,45.5z M74,45.8L74,45.8   c-0.1-0.1-0.1-0.1-0.2-0.1s-0.2,0-0.2,0.1c-0.1,0.1-0.1,0.1-0.1,0.2c0,0.1,0,0.2,0.1,0.2c0.1,0.1,0.1,0.1,0.2,0.1s0.2,0,0.2-0.1   c0.1-0.1,0.1-0.1,0.1-0.2C74.1,45.9,74.1,45.8,74,45.8z"/>
	<path class="st4" d="M72.3,45.5c0.1,0,0.3,0.1,0.4,0.1c0.1,0.1,0.1,0.2,0.1,0.4c0,0.1-0.1,0.3-0.1,0.4c-0.1,0.1-0.2,0.1-0.4,0.1   c-0.1,0-0.3-0.1-0.4-0.1c-0.1-0.1-0.1-0.2-0.1-0.4c0-0.1,0.1-0.3,0.1-0.4C72.1,45.5,72.2,45.5,72.3,45.5z M72.6,45.8L72.6,45.8   c-0.1-0.1-0.1-0.1-0.2-0.1c-0.1,0-0.2,0-0.2,0.1C72.1,45.8,72,45.9,72,46c0,0.1,0,0.2,0.1,0.2c0.1,0.1,0.1,0.1,0.2,0.1   c0.1,0,0.2,0,0.2-0.1c0.1-0.1,0.1-0.1,0.1-0.2C72.7,45.9,72.6,45.8,72.6,45.8z"/>
	<path class="st2" d="M74.6,42.1c0.1,0.1,0.1,0.5-0.2,1c-0.3,0.5-0.6,0.7-0.7,0.7c-0.1-0.1-0.1-0.5,0.2-1   C74.1,42.3,74.4,42,74.6,42.1z M71.7,42.1L71.7,42.1c-0.1,0.1-0.1,0.5,0.2,1c0.3,0.5,0.6,0.7,0.7,0.7c0.1-0.1,0.1-0.5-0.2-1   C72.1,42.3,71.8,42,71.7,42.1z"/>
	<path class="st4" d="M76.5,62.7c0,0-2.6-0.5-2.7-1.7c-0.1-0.6,0-1,0.1-1.4c0.1-0.3,0.1-0.5,0.1-0.8c-0.1-0.3-0.1-0.6-0.1-0.9   c0-0.3,0-0.7,0-1.1c0-0.4-0.1-0.6-0.2-0.8c-0.2-0.3-0.3-0.5-0.2-1c0.1-0.5,0-0.9-0.1-1.2c-0.1-0.2-0.1-0.3-0.1-0.5   c0-0.2,0-0.4,0-0.6s0-0.4,0-0.6c-0.1,0.3-0.1,0.5-0.2,0.7c-0.1,0.1-0.1,0.3-0.2,0.4c-0.1,0.3-0.2,0.5-0.1,0.8   c0,0.1,0.1,0.2,0.1,0.3c0.1,0.3,0.2,0.4-0.1,0.8c-0.1,0.2-0.2,0.4-0.2,0.6c0,0.2,0,0.5,0.1,0.9c0.2,0.7,0,1-0.2,1.2   c-0.1,0.1-0.1,0.1-0.1,0.2l0,0c0,0.1,0.1,0.3,0.2,0.5c0.1,0.2,0.3,0.4,0.3,0.6s-0.1,0.5-0.4,0.9c-0.3,0.4-0.7,0.9-0.9,1   c-0.4,0.3-1.4,0.9-1.4,0.9L70,61.5c0,0,1-0.6,1.3-0.9c0.2-0.1,0.6-0.6,0.9-1c0.2-0.3,0.3-0.5,0.3-0.6c0-0.1-0.1-0.3-0.2-0.5   c-0.2-0.3-0.4-0.6-0.3-0.9l0,0c0-0.1,0.1-0.2,0.2-0.3c0.1-0.2,0.3-0.4,0.1-0.9c-0.1-0.5-0.1-0.7-0.1-1c0-0.3,0.1-0.5,0.3-0.7   s0.1-0.3,0-0.5c0-0.1-0.1-0.2-0.1-0.4c-0.1-0.5,0-0.7,0.2-1c0.1-0.1,0.1-0.2,0.1-0.3c0.2-0.6,0.3-1.6,0.3-1.6c0-0.2,0-0.4,0.1-0.6   c0-0.1,0.1-0.1,0.2,0l0.2,0.6c0,0,0.1,0.2,0.2,0.5c0.1,0.3,0.1,0.7,0.1,1.1c0,0.2,0,0.4,0,0.6c0,0.1,0.1,0.3,0.1,0.4   c0.1,0.4,0.2,0.8,0.1,1.4c-0.1,0.3,0,0.5,0.1,0.7c0.2,0.3,0.3,0.5,0.3,1c-0.1,0.5-0.1,0.8,0,1.1c0,0.3,0.1,0.6,0.1,0.9   c0.1,0.3,0,0.6-0.1,0.9c-0.1,0.4-0.1,0.8-0.1,1.3c0.1,0.9,2.4,1.4,2.4,1.4L76.5,62.7L76.5,62.7z"/>
	<path class="st2" d="M84.9,66.4c0.1,0.2,0.3,0.4,0.4,0.7c0.3,0.5,0.5,1,0.7,1.5c0.2,0.6,0.3,1.2,0.2,1.8c-0.5,1.9-1.6,3.3-3.7,3.4   c-1.7,0.1-3.1-0.8-3.8-2.3c-0.2-0.3-0.3-0.8-0.4-1.2c-0.1-0.5-0.2-1-0.3-1.5v-0.1l0.5-1.4l2.8-1.6l3.6,0.7L84.9,66.4L84.9,66.4z"/>
	<path class="st1" d="M84.7,66.6c0,0,1.6,2.2,1.2,3.7c-0.4,1.5-1.3,3.1-3.5,3.2c-2.2,0.1-3.2-1.4-3.6-2.2c-0.4-0.8-0.6-2.6-0.6-2.6   l0.4-1.2l2.6-1.5L84.7,66.6L84.7,66.6z"/>
	<path class="st2" d="M85.8,69.8c-0.2,1-0.8,1.9-1.8,2.4c-0.3,0.1-0.6,0.3-0.9,0.3c-0.8,0.2-1.6,0.2-2.4,0c-0.6-0.1-1.3-0.5-1.6-1   c-0.1-0.2-0.2-0.3-0.3-0.5c-0.3-0.6-0.6-1.3-0.8-2c-0.1-0.3-0.2-0.6-0.3-0.9l0-0.1l2.9-4.9l0.2,0.1c0.4,0.2,0.8,0.5,1.2,0.8   c0.8,0.6,1.6,1.2,2.3,2c0.7,0.8,1.3,1.7,1.4,2.7C85.9,69,85.8,69.4,85.8,69.8L85.8,69.8z"/>
	<path class="st1" d="M80.8,63.4c0,0,5.5,2.9,4.8,6.3c-0.7,3.3-5.3,2.9-6.2,1.6c-0.9-1.4-1.2-3.3-1.2-3.3L80.8,63.4z"/>
	<path class="st2" d="M78.8,65c0.6-0.1,1.2-0.1,1.8-0.1c0.5,0,1.2,0,1.6,0.1c0.6,0.2,1.3,0.7,1.8,1.1c0.7,0.7,1.2,1.5,1.3,2.5   c0.1,0.7-0.1,1.3-0.5,1.8c-0.7,0.8-1.9,1.2-2.9,1.3c-0.9,0-1.9-0.5-2.5-1.1C78.6,69.9,78,69,78.1,68c0.1-0.7,0.2-1.4,0.3-2.1   c0.1-0.3,0.1-0.5,0.1-0.7l0.1-0.2H78.8L78.8,65z"/>
	<path class="st1" d="M78.8,65.3c0,0,2.4-0.3,3.3-0.1c0.8,0.3,2.7,1.4,2.9,3.3c0.2,1.9-1.8,2.7-3.2,2.8c-1.4,0-3.6-1.5-3.4-3.3   C78.6,66.3,78.8,65.3,78.8,65.3L78.8,65.3z"/>
	<path class="st2" d="M83,66.9c0.5,0.3,1.4,1,1.2,1.7c-0.1,0.5-0.4,1-0.7,1.3c-0.5,0.5-1.1,0.8-1.8,0.8c-0.7,0-1.4-0.1-2-0.5   c-0.5-0.3-0.9-0.8-1.1-1.4c-0.1-0.1-0.1-0.3,0-0.4c0.1-0.8,1.4-1.3,2.1-1.5h0L83,66.9L83,66.9L83,66.9z"/>
	<path class="st1" d="M82.8,67.1c0,0,1.2,0.7,1.1,1.4c-0.1,0.7-0.9,1.9-2.3,2c-1.4,0.1-2.5-0.7-2.9-1.7c-0.3-1,1.8-1.6,1.8-1.6   L82.8,67.1L82.8,67.1z"/>
	<path class="st2" d="M82.9,66.3c0.3,0.2,0.9,0.7,1,1.1c0.1,0.4-0.1,1-0.3,1.3c-0.5,0.7-1.2,1-1.9,1c-0.7,0-1.4-0.1-2-0.5   c-0.2-0.1-0.5-0.3-0.7-0.5l-0.1-0.1l0.5-2.1L82.9,66.3L82.9,66.3L82.9,66.3z"/>
	<path class="st1" d="M82.7,66.5c0,0,0.8,0.6,0.9,1c0.1,0.4-0.2,2-2,2c-1.8,0-2.5-0.9-2.5-0.9l0.5-1.8L82.7,66.5L82.7,66.5z"/>
	<path class="st2" d="M81.7,65.2c0.6,0.3,1.7,1,1.8,1.7c0.1,0.5-0.1,1-0.5,1.4c-0.5,0.5-1,0.7-1.7,0.7c-0.5,0-1.1-0.1-1.6-0.3   c-0.2-0.1-0.4-0.2-0.5-0.3l-0.1-0.1l-0.7-2.4L81.7,65.2L81.7,65.2L81.7,65.2z"/>
	<path class="st1" d="M81.6,65.4c0,0,1.6,0.8,1.7,1.5c0.1,0.8-0.6,1.8-1.9,1.7c-1.3,0-2-0.6-2-0.6l-0.6-2L81.6,65.4z"/>
	<path class="st2" d="M83.9,59.2c0.1,0,0.1,0,0.1,0c0.2,0.1,0.1,0.3,0.1,0.4c0,0.1-0.1,0.2-0.1,0.3c-0.1,0.3-0.2,0.5-0.3,0.8   c-0.1,0.2-0.1,0.5,0,0.7c0.1,0.4,0.3,1,0.6,1.3l0,0v0c0.1,0.1,0.1,0.3,0.1,0.4c0,0.3-0.2,0.5-0.5,0.5c-0.4,0-0.9-0.5-1.2-0.7   c-0.2-0.2-0.5-0.6-0.6-0.9c-0.2-0.6,0-2.3,0.1-2.9l0-0.3L83.9,59.2L83.9,59.2z"/>
	<path class="st1" d="M83.9,59.5c0.1-0.1-0.6,1.2-0.4,2c0.1,0.8,0.6,1.4,0.6,1.4s0.2,0.5-0.2,0.5c-0.4,0-1.3-0.9-1.5-1.4   c-0.2-0.6,0.1-2.8,0.1-2.8L83.9,59.5z"/>
	<path class="st2" d="M82.9,60c-0.2,0.6-0.3,1.3-0.1,1.9c0.1,0.6,0.6,1.4,1,1.8l0,0v0c0.1,0.3,0.1,0.6-0.3,0.8   c-0.4,0.2-1-0.1-1.3-0.3c-0.1-0.1-0.2-0.2-0.3-0.3c-0.4-0.4-0.9-2-1-2.6v-0.1l0.1-2.4l1.4-0.5l1,0.8L82.9,60L82.9,60z"/>
	<path class="st1" d="M82.7,59.8c0,0-0.4,1.1-0.1,2.1c0.3,1,1,2,1,2s0.1,0.3-0.1,0.4c-0.3,0.1-1-0.1-1.4-0.5c-0.4-0.4-1-2.5-1-2.5   l0.1-2.2l1.1-0.3l0.7,0.5L82.7,59.8z"/>
	<path class="st2" d="M83.1,64.6c0,0.1,0,0.2,0,0.3c0,0.2-0.2,0.4-0.4,0.5c-0.4,0.1-1-0.3-1.3-0.5l-0.1,0l-1.6-2.8l0.3-2.6l1.9-0.7   l-0.1,0.5c-0.1,0.6-0.2,1.2-0.2,1.8c0,0.3,0,0.7,0.1,1C82,62.9,82.6,64,83.1,64.6L83.1,64.6L83.1,64.6z"/>
	<path class="st1" d="M81.6,59.3c0,0-0.4,1.8-0.1,2.9s1.3,2.5,1.3,2.5s0.1,0.3-0.2,0.4c-0.3,0.1-1.1-0.4-1.1-0.4l-1.5-2.6l0.3-2.3   L81.6,59.3z"/>
	<path class="st2" d="M81,60.3c-0.1,0.1-0.1,0.4-0.2,0.5c-0.1,0.5,0,1.1,0.1,1.6c0.2,0.7,0.5,1.2,0.9,1.8c0.1,0.2,0.3,0.4,0.5,0.7   c0.1,0.2,0.3,0.4,0.3,0.6c0,0.9-0.9,0.7-1.5,0.6c-0.6-0.1-1-0.9-1.3-1.4c-0.2-0.4-0.4-0.7-0.6-1.1C79.2,63.5,79,63,79,62.9   c0-0.9,0-1.8,0-2.7v-0.3l2.3,0L81,60.3L81,60.3z"/>
	<path class="st1" d="M80.7,60.2c0,0-0.5,0.8-0.1,2.3s1.6,2.5,1.6,2.9s-0.2,0.6-1.2,0.3c-0.9-0.3-1.9-2.8-1.9-2.9c0-0.1,0-2.7,0-2.7   H80.7L80.7,60.2z"/>
	<path class="st2" d="M79.9,60.6c-0.1,0.3-0.1,0.6-0.1,0.8c0,0.5,0,1.1,0.2,1.6c0.1,0.4,0.4,0.9,0.7,1.2c0.3,0.4,0.6,0.8,0.9,1.1   c0.2,0.2,0.5,0.6,0.4,0.9c-0.1,0.1-0.1,0.3-0.2,0.4c-0.3,0.3-0.8,0.2-1.1,0.1c-0.6-0.1-1.2-1-1.5-1.5c-0.4-0.6-0.8-1.2-1.1-1.8   l0-0.1l-0.3-2.9l2.3-0.4L79.9,60.6L79.9,60.6z"/>
	<path class="st1" d="M79.6,60.6c0,0-0.2,1.4,0.1,2.6c0.4,1.2,2,2.8,1.9,3.1c-0.1,0.3-0.1,0.6-1,0.3c-0.9-0.2-2.4-3.1-2.4-3.1   L78,60.9L79.6,60.6z"/>
	<path class="st2" d="M76.7,61.1c0,0,0-0.1,0-0.1c0-0.3,0.3-0.3,0.5-0.3c0.2,0,0.3,0,0.5,0c0.3,0,0.5,0,0.8,0l0.4,0L78.8,61   c-0.1,0.2-0.1,0.5-0.2,0.7c-0.1,0.5,0,1,0.2,1.4c0.1,0.3,0.3,0.5,0.5,0.8c0.2,0.3,0.5,0.6,0.7,0.9c0.3,0.5,0.7,0.9,1,1.3   c0.2,0.3,0.5,0.7,0.4,1c-0.3,0.8-1.4,0.6-2,0.3c-0.7-0.2-1.3-1.2-1.7-1.8c-0.3-0.5-0.6-0.9-0.8-1.4c-0.1-0.2-0.4-0.7-0.4-0.9   c0-0.1,0-0.3,0.1-0.5c0-0.3,0.1-0.5,0.1-0.8c0-0.2,0.1-0.5,0.1-0.7C76.7,61.4,76.8,61.2,76.7,61.1L76.7,61.1z"/>
	<path class="st1" d="M78.5,60.9c0,0-0.5,1.2,0,2.3c0.5,1.1,2.8,3.4,2.6,3.9c-0.2,0.4-0.7,0.5-1.7,0.2c-1-0.3-2.7-3.6-2.7-3.9   S77.1,61,77,61C76.9,60.9,78.5,60.9,78.5,60.9L78.5,60.9z"/>
	<path class="st2" d="M90.2,57.5c0.3-0.3,0.6-0.5,0.9-0.7c0.7-0.4,1.5-0.7,2.3-0.7c0.5,0,0.9,0.1,1.3,0.1c0.7,0.1,1.3,0.3,1.9,0.4   c0.3,0.1,0.6,0.2,0.9,0.3l0.1,0l0,0c0.2,0.1,0.4,0.3,0.5,0.5c0.2,0.3,0.5,0.7,0.3,1c-0.1,0.2-0.5,0.3-0.7,0.3   c-0.3,0.1-0.6,0.1-0.9,0.1c-0.3,0-0.6,0-0.9,0c-0.2,0-0.5,0-0.7,0c-0.3,0-0.5-0.1-0.8-0.1c-0.3,0-1.2-0.1-1.5,0   c-0.2,0.1-0.4,0.2-0.6,0.3c-0.3,0.2-0.6,0.4-0.9,0.5c-0.3,0.2-0.7,0.4-1,0.6c-0.2,0.1-0.6,0.3-0.8,0.3c-0.6-0.1-1.1-0.6-0.9-1.2   C89,58.6,89.8,57.8,90.2,57.5L90.2,57.5z"/>
	<path class="st1" d="M97.4,57.1c0,0,1,0.8,0.8,1.1c-0.2,0.3-1.6,0.3-2.3,0.3c-0.7,0-2.5-0.3-3.1-0.1c-0.6,0.2-2.6,1.8-3.1,1.7   c-0.4-0.1-0.8-0.3-0.6-0.9c0.1-0.5,1.3-1.6,1.3-1.6s1.4-1.4,3-1.4S97.4,57.1,97.4,57.1L97.4,57.1z"/>
	<path class="st2" d="M98.3,55.5c0.2,0.2,0.5,0.4,0.7,0.7c0.1,0.2,0.3,0.3,0.4,0.5c0.1,0.2,0.3,0.5,0.1,0.7   c-0.4,0.4-2.2,0.4-2.6,0.3c-0.4,0-0.8-0.1-1.2-0.2c-0.9-0.2-2.4-0.6-3.3-0.2c-0.3,0.1-0.5,0.3-0.8,0.5c-0.4,0.3-0.7,0.5-1.1,0.8   c-0.4,0.3-0.8,0.7-1.2,1c-0.2,0.2-0.7,0.5-0.9,0.5c-0.5,0.1-1.1-0.1-1.5-0.4l-0.2-0.2l0.1-0.2c0.3-0.4,0.6-0.8,0.9-1.2   c0.7-0.8,1.4-1.6,2.3-2.3c0.9-0.7,2.1-1.3,3.3-1.3c1.2,0,2.5,0.1,3.7,0.5c0.3,0.1,0.7,0.2,0.9,0.3C98.1,55.4,98.2,55.4,98.3,55.5   L98.3,55.5L98.3,55.5L98.3,55.5z"/>
	<path class="st1" d="M98.1,55.7c0,0,1.3,1.2,1.1,1.4c-0.2,0.2-2.2,0.4-3.5,0.1c-1.3-0.3-2.6-0.6-3.5-0.2s-3.4,2.7-4,2.8   c-0.6,0.1-1.2-0.3-1.2-0.3s3-4.7,6.2-4.6C96.5,54.8,98.1,55.7,98.1,55.7L98.1,55.7z"/>
	<path class="st2" d="M85.1,58.9c0.1-0.1,0.1-0.2,0.2-0.3c0.2-0.3,0.4-0.5,0.6-0.8c0.6-0.7,1.2-1.5,1.9-2.2c0.8-0.8,2.1-2,3.2-2.1   c0.6-0.1,1.2-0.1,1.7-0.1c0.7,0,1.4,0.1,2.1,0.2c1,0.1,2.1,0.3,3.1,0.5c0.5,0.1,0.9,0.2,1.4,0.3l0.1,0l0.1,0.1   c0.2,0.2,0.4,0.4,0.6,0.6c0.2,0.3,0.7,0.7,0.5,1.1c-0.1,0.2-0.4,0.3-0.6,0.3c-0.3,0-0.6,0-0.9,0c-0.9,0-1.7-0.1-2.5-0.3   c-0.7-0.1-1.3-0.2-2-0.3c-0.5-0.1-1.1-0.1-1.6-0.1c-0.4,0-0.8,0.1-1.1,0.2c-0.7,0.2-1.5,1-2,1.5c-0.5,0.5-0.9,1-1.4,1.4   c-0.2,0.2-0.3,0.4-0.5,0.5c-0.1,0.1-0.2,0.3-0.3,0.3c-0.5,0.3-1.1,0.6-1.7,0.3c-0.4-0.2-0.7-0.5-0.9-0.9L85,59L85.1,58.9L85.1,58.9   z"/>
	<path class="st1" d="M99.4,54.7c0,0,1.2,1,1,1.3c-0.2,0.3-1.7,0.2-3.7-0.1c-2-0.3-3.3-0.7-4.9-0.2c-1.5,0.5-3.9,3.6-4.3,3.8   s-0.9,0.5-1.4,0.3s-0.8-0.8-0.8-0.8s3.5-4.8,5.8-5.2C93.4,53.5,99.4,54.7,99.4,54.7L99.4,54.7z"/>
	<path class="st2" d="M85.3,56.2c0-0.2,0.1-0.4,0.2-0.5c0.2-0.5,0.4-0.9,0.7-1.3C87,53,88.3,52.2,90,52c0.8-0.1,1.6-0.2,2.5-0.3   c0.6-0.1,1.3-0.1,1.9-0.1c0.9,0,1.8,0.1,2.6,0.4c0.3,0.1,0.6,0.2,0.9,0.3c0.4,0.1,0.8,0.1,1.2,0.2c0.9,0.1,1.8,0.2,2.8,0.3h0.2   l0.1,0.2c0.1,0.3,0.1,0.6,0.1,0.8c0,0.5-0.1,1.1-0.6,1.4c-0.4,0.3-1.2,0.2-1.7,0.2c-0.9-0.1-1.7-0.3-2.6-0.4   c-0.7-0.1-1.4-0.3-2.1-0.4c-0.3-0.1-0.6-0.1-0.9-0.1c-0.2,0-0.4-0.1-0.6,0c-0.9,0-1.9,0.2-2.7,0.5c-0.6,0.3-1.1,0.7-1.6,1.1   c-0.5,0.5-0.9,1.1-1.4,1.7c-0.6,0.7-1.2,1.3-1.9,1.8c-0.3,0.2-0.7,0.5-1,0.5c-0.5,0.1-0.9-0.1-1.3-0.4c-0.1-0.1-0.1-0.1-0.2-0.2   c-0.3-0.6,0.2-1.5,0.6-2C84.6,57.1,85,56.6,85.3,56.2L85.3,56.2z"/>
	<path class="st1" d="M101.9,53c0,0,0.4,1.4-0.4,2c-0.7,0.6-6.2-0.9-7.7-0.9c-5,0.2-4.8,3-7.9,5.2c-0.6,0.4-1.1,0.8-2,0.1   c-0.8-0.7,1.5-3.1,1.5-3.1s0.7-3.5,4.4-4.1c3.7-0.6,5.6-0.5,6.9,0C98.2,52.7,101.9,53,101.9,53z"/>
	<path class="st2" d="M82.9,56.3c0.3-0.5,0.7-1.1,1.1-1.6c0.8-1.1,1.8-2.2,2.9-3c1.1-0.9,2.4-1.6,3.8-1.6c1.3-0.1,2.7,0,4,0.1   c1.6,0.1,3.2,0.3,4.8,0.5c0.7,0.1,1.4,0.2,2.1,0.3l1.5-0.4l0,0.4c0,0.5-0.1,1.1-0.2,1.6c-0.1,0.4-0.4,0.8-0.7,1   c-1.1,0.7-4.7,0.1-6-0.1c-1.1-0.2-2.2-0.4-3.3-0.4c-0.9,0-1.7,0-2.5,0.3c-1.7,0.5-2.9,1.9-4,3.3c-0.2,0.3-0.3,0.5-0.5,0.8   c-0.2,0.3-0.4,0.7-0.6,1c-0.3,0.5-0.6,0.9-0.9,1.4c-0.3,0.3-0.6,0.7-1,0.8c-0.3,0.1-0.6,0.1-0.8-0.1c-0.7-0.3-0.8-1.3-0.8-2   c0-0.3,0.1-0.7,0.3-1C82.2,57.1,82.6,56.7,82.9,56.3L82.9,56.3z"/>
	<path class="st1" d="M102.8,51c0,0,0.1,1.8-0.8,2.3c-0.9,0.5-4.3,0.1-5.8-0.1c-4.8-0.8-6.9-0.9-10,3.3c-0.8,1-1.9,3.6-2.8,3.8   c-0.9,0.2-1.3-0.8-1.3-1.8c0-1,1.1-2,1.1-2s3.5-5.9,7.5-6.1c4.1-0.2,10.9,1,10.9,1L102.8,51L102.8,51z"/>
	<path class="st2" d="M104,49.3c0.2,0.5,0.3,1.3,0,1.8c-0.1,0.1-0.1,0.2-0.2,0.3c-0.3,0.3-0.7,0.5-1,0.5c-0.6,0.1-1.2,0.1-1.8,0.1   c-0.3,0-0.6,0-0.9-0.1c-0.4,0-0.8-0.1-1.2-0.1c-0.9-0.1-1.8-0.2-2.8-0.3c-0.8-0.1-1.5-0.2-2.3-0.2c-0.6,0-1.2-0.1-1.9,0   c-2.1,0.1-4.3,1.4-5.9,2.7c-0.3,0.3-0.7,0.7-0.9,1c-0.4,0.5-0.7,1-1,1.4c-0.5,0.7-0.9,1.4-1.4,2c-0.2,0.3-0.3,0.5-0.5,0.8   c-0.1,0.1-0.2,0.3-0.3,0.5c-0.3,0.3-0.4,0.6-0.7,0.9c-0.3,0.4-0.8,0.6-1.3,0.7c-0.6,0-1.4-0.2-1.9-0.5l-0.3-0.2l5.6-8.3l4.5-3.4   l6.1-1.1l9.9,1.2L104,49.3z"/>
	<path class="st1" d="M103.7,49.4c0,0,0.3,1,0,1.6c-0.3,0.6-1,0.7-2.7,0.7c-1.7,0-6.6-0.9-9-0.7c-2.4,0.2-4.7,1.6-6,2.8   c-1.4,1.2-3.8,5.3-4.2,5.8C81.4,60.1,80.9,61,80,61c-0.9,0-1.7-0.4-1.7-0.4l5.4-8l4.4-3.3l6-1.1L103.7,49.4L103.7,49.4z"/>
	<path class="st2" d="M100.6,47.6l3.6,0.1l0.1,0.2c0.2,0.4,0.3,1.1,0.2,1.6c-0.3,0.9-1.4,1-2.2,1c-0.3,0-0.6-0.1-0.9-0.1   c-0.5-0.1-1-0.1-1.4-0.2c-1.3-0.2-2.6-0.3-3.9-0.5c-1-0.1-2.1-0.2-3.1-0.3c-0.4,0-0.9-0.1-1.3-0.1c-0.3,0-0.7,0-1,0   c-1.7,0.2-3.7,1.4-5,2.4c-1.1,0.9-2.2,2-2.9,3.1c-0.4,0.6-0.7,1.2-1.1,1.9c-0.6,1-1.2,2.1-1.8,3.1c-0.3,0.5-1,1.6-1.5,1.8   c-0.4,0.2-0.9,0.2-1.3,0.1c-0.2,0-0.4-0.1-0.6-0.2l-0.3-0.1l2.2-4.6l6-7.9l6.2-3L100.6,47.6L100.6,47.6z"/>
	<path class="st1" d="M104,48.1c0,0,0.3,0.9,0.2,1.4c-0.1,0.5-0.8,0.8-1.9,0.8c-1,0-9-1.3-11.6-1.1c-2.6,0.3-6.5,3-8.1,5.7   c-1.6,2.6-3.3,6.3-4.3,6.6c-0.9,0.3-1.7,0-1.7,0l2.1-4.3l6-7.9l6-2.9l9.8,1.6L104,48.1L104,48.1z"/>
	<path class="st2" d="M104.5,47c0.2-0.1,0.4,0,0.5,0.1c0.1,0.1,0.1,0.5,0,0.6c-0.1,0.3-0.2,0.6-0.5,0.8c-0.3,0.3-0.7,0.3-1,0.4   c-0.6,0.1-1.2,0.1-1.8,0c-0.6,0-1.3-0.1-1.9-0.3c-0.9-0.1-1.7-0.3-2.5-0.5c-1-0.2-2.1-0.4-3.1-0.5c-2.4-0.3-4,0-6.2,1   c-1,0.4-2,1.1-2.8,1.8c-0.7,0.6-1.4,1.2-2,1.8c-0.5,0.5-1,1-1.4,1.6c-0.3,0.4-0.7,0.9-0.9,1.4c-0.4,0.6-0.8,1.2-1.2,1.8   c-0.4,0.6-0.8,1.2-1.1,1.9c-0.3,0.5-0.5,1-0.8,1.5c-0.4,0.9-0.8,2-0.3,3c0.1,0.3,0.3,0.5,0.5,0.7c0.3,0.3,0.5,0.6,0.8,0.9   c0.3,0.4,0.7,0.9,0.9,1.3c0.1,0.1,0.1,0.3,0.1,0.4c0.2,0.8,0,1.9-0.7,2.4c-0.3,0.2-0.5,0.2-0.8,0.2c-0.3,0-0.5-0.1-0.8-0.3   c-0.4-0.3-0.5-0.8-0.6-1.3c-0.1-0.5-0.2-1.1-0.3-1.6c-0.1-0.5-0.3-0.6-0.6-0.9c-0.2-0.2-0.4-0.4-0.5-0.7c-0.2-0.4-0.3-1-0.3-1.4   c-0.2-2.3,0.9-5.4,2.2-7.3c3.2-5.1,7.4-10.4,13.9-10.9c0.7-0.1,1.5,0,2.2,0.1c0.8,0.1,1.6,0.3,2.4,0.5c0.9,0.2,1.7,0.5,2.6,0.7   c0.7,0.2,1.4,0.4,2.1,0.6C101.8,47.2,103.2,47.2,104.5,47L104.5,47z"/>
	<path class="st1" d="M104.6,47.3c0,0-1.9,0.4-4.1-0.1c-2.2-0.5-6.5-2.1-9.1-1.9C85,45.7,81,50.8,77.7,56.1   c-1.1,1.8-2.3,4.9-2.1,7.1c0.2,2.3,1,1.5,1.4,3s0.3,2.9,1.4,2.9c1.2,0,1.6-1.5,1.1-2.6c-0.5-1.1-1.8-2.2-2.2-2.9   c-0.4-0.8-0.4-1.8,0.3-3.3s3-5.2,4.1-6.6c1-1.4,3.9-4.2,6.3-5.3s4.1-1.3,6.3-1c2.3,0.3,6,1.1,7.5,1.2c1.5,0.1,2.2,0,2.6-0.3   c0.4-0.3,0.4-0.9,0.4-1C104.7,47.2,104.6,47.3,104.6,47.3L104.6,47.3z"/>
	<path class="st2" d="M60.6,66.4c-0.1,0.2-0.3,0.4-0.4,0.7c-0.3,0.5-0.5,1-0.7,1.5c-0.2,0.6-0.3,1.2-0.2,1.8   c0.5,1.9,1.6,3.3,3.7,3.4c1.7,0.1,3.1-0.8,3.8-2.3c0.2-0.3,0.3-0.8,0.4-1.2c0.1-0.5,0.2-1,0.3-1.5v-0.1L67,67.3l-2.8-1.6l-3.6,0.7   L60.6,66.4L60.6,66.4z"/>
	<path class="st1" d="M60.8,66.6c0,0-1.6,2.2-1.2,3.7c0.4,1.5,1.3,3.1,3.5,3.2c2.2,0.1,3.2-1.4,3.6-2.2c0.4-0.8,0.6-2.6,0.6-2.6   l-0.4-1.2l-2.6-1.5L60.8,66.6L60.8,66.6z"/>
	<path class="st2" d="M59.7,69.8c0.2,1,0.8,1.9,1.8,2.4c0.3,0.1,0.6,0.3,0.9,0.3c0.8,0.2,1.6,0.2,2.4,0c0.6-0.1,1.3-0.5,1.6-1   c0.1-0.2,0.2-0.3,0.3-0.5c0.3-0.6,0.6-1.3,0.8-2c0.1-0.3,0.2-0.6,0.3-0.9l0-0.1L64.9,63l-0.2,0.1c-0.4,0.2-0.8,0.5-1.2,0.8   c-0.8,0.6-1.6,1.2-2.3,2c-0.7,0.8-1.3,1.7-1.4,2.7C59.7,69,59.7,69.4,59.7,69.8L59.7,69.8z"/>
	<path class="st1" d="M64.7,63.4c0,0-5.5,2.9-4.8,6.3c0.7,3.3,5.3,2.9,6.2,1.6c0.9-1.4,1.2-3.3,1.2-3.3L64.7,63.4z"/>
	<path class="st2" d="M66.7,65c-0.6-0.1-1.2-0.1-1.8-0.1c-0.5,0-1.2,0-1.6,0.1c-0.6,0.2-1.3,0.7-1.8,1.1c-0.7,0.7-1.2,1.5-1.3,2.5   c-0.1,0.7,0.1,1.3,0.5,1.8c0.7,0.8,1.9,1.2,2.9,1.3c0.9,0,1.9-0.5,2.5-1.1c0.7-0.7,1.2-1.5,1.2-2.5c-0.1-0.7-0.2-1.4-0.3-2.1   C67,65.7,67,65.5,67,65.2L66.9,65H66.7L66.7,65z"/>
	<path class="st1" d="M66.7,65.3c0,0-2.4-0.3-3.3-0.1c-0.8,0.3-2.7,1.4-2.9,3.3c-0.2,1.9,1.8,2.7,3.2,2.8c1.4,0,3.6-1.5,3.4-3.3   C66.9,66.3,66.7,65.3,66.7,65.3L66.7,65.3z"/>
	<path class="st2" d="M62.5,66.9c-0.5,0.3-1.4,1-1.2,1.7c0.1,0.5,0.4,1,0.7,1.3c0.5,0.5,1.1,0.8,1.8,0.8c0.7,0,1.4-0.1,2-0.5   c0.5-0.3,0.9-0.8,1.1-1.4c0.1-0.1,0.1-0.3,0-0.4c-0.1-0.8-1.4-1.3-2.1-1.5h0L62.5,66.9L62.5,66.9L62.5,66.9z"/>
	<path class="st1" d="M62.7,67.1c0,0-1.2,0.7-1.1,1.4c0.1,0.7,0.9,1.9,2.3,2c1.4,0.1,2.5-0.7,2.9-1.7c0.3-1-1.8-1.6-1.8-1.6   L62.7,67.1L62.7,67.1z"/>
	<path class="st2" d="M62.6,66.3c-0.3,0.2-0.9,0.7-1,1.1c-0.1,0.4,0.1,1,0.3,1.3c0.5,0.7,1.2,1,1.9,1c0.7,0,1.4-0.1,2-0.5   c0.2-0.1,0.5-0.3,0.7-0.5l0.1-0.1l-0.5-2.1L62.6,66.3L62.6,66.3L62.6,66.3z"/>
	<path class="st1" d="M62.8,66.5c0,0-0.8,0.6-0.9,1c-0.1,0.4,0.2,2,2,2c1.8,0,2.5-0.9,2.5-0.9l-0.5-1.8L62.8,66.5L62.8,66.5z"/>
	<path class="st2" d="M63.8,65.2c-0.6,0.3-1.7,1-1.8,1.7c-0.1,0.5,0.1,1,0.5,1.4c0.5,0.5,1,0.7,1.7,0.7c0.5,0,1.1-0.1,1.6-0.3   c0.2-0.1,0.4-0.2,0.5-0.3l0.1-0.1l0.7-2.4L63.8,65.2L63.8,65.2L63.8,65.2z"/>
	<path class="st1" d="M64,65.4c0,0-1.6,0.8-1.7,1.5c-0.1,0.8,0.6,1.8,1.9,1.7c1.3,0,2-0.6,2-0.6l0.6-2L64,65.4z"/>
	<path class="st2" d="M61.6,59.2c-0.1,0-0.1,0-0.1,0c-0.2,0.1-0.1,0.3-0.1,0.4c0,0.1,0.1,0.2,0.1,0.3c0.1,0.3,0.2,0.5,0.3,0.8   c0.1,0.2,0.1,0.5,0,0.7c-0.1,0.4-0.3,1-0.6,1.3l0,0v0c-0.1,0.1-0.1,0.3-0.1,0.4c0,0.3,0.2,0.5,0.5,0.5c0.4,0,0.9-0.5,1.2-0.7   c0.2-0.2,0.5-0.6,0.6-0.9c0.2-0.6,0-2.3-0.1-2.9l0-0.3L61.6,59.2L61.6,59.2z"/>
	<path class="st1" d="M61.6,59.5c-0.1-0.1,0.6,1.2,0.4,2c-0.1,0.8-0.6,1.4-0.6,1.4s-0.2,0.5,0.2,0.5s1.3-0.9,1.5-1.4   c0.2-0.6-0.1-2.8-0.1-2.8L61.6,59.5z"/>
	<path class="st2" d="M62.6,60c0.2,0.6,0.3,1.3,0.1,1.9c-0.1,0.6-0.6,1.4-1,1.8l0,0v0c-0.1,0.3-0.1,0.6,0.3,0.8   c0.4,0.2,1-0.1,1.3-0.3c0.1-0.1,0.2-0.2,0.3-0.3c0.4-0.4,0.9-2,1-2.6v-0.1l-0.1-2.4l-1.4-0.5l-1,0.8L62.6,60L62.6,60z"/>
	<path class="st1" d="M62.8,59.8c0,0,0.4,1.1,0.1,2.1c-0.3,1-1,2-1,2s-0.1,0.3,0.1,0.4c0.3,0.1,1-0.1,1.4-0.5c0.4-0.4,1-2.5,1-2.5   l-0.1-2.2l-1.1-0.3l-0.7,0.5L62.8,59.8z"/>
	<path class="st2" d="M62.4,64.6c0,0.1,0,0.2,0,0.3c0,0.2,0.2,0.4,0.4,0.5c0.4,0.1,1-0.3,1.3-0.5l0.1,0l1.6-2.8l-0.3-2.6l-1.9-0.7   l0.1,0.5c0.1,0.6,0.2,1.2,0.2,1.8c0,0.3,0,0.7-0.1,1C63.5,62.9,62.9,64,62.4,64.6L62.4,64.6L62.4,64.6z"/>
	<path class="st1" d="M63.8,59.3c0,0,0.4,1.8,0.1,2.9c-0.3,1.1-1.3,2.5-1.3,2.5s-0.1,0.3,0.2,0.4c0.3,0.1,1.1-0.4,1.1-0.4l1.5-2.6   l-0.3-2.3L63.8,59.3z"/>
	<path class="st2" d="M64.5,60.3c0.1,0.1,0.1,0.4,0.2,0.5c0.1,0.5,0,1.1-0.1,1.6c-0.2,0.7-0.5,1.2-0.9,1.8c-0.1,0.2-0.3,0.4-0.5,0.7   c-0.1,0.2-0.3,0.4-0.3,0.6c0,0.9,0.9,0.7,1.5,0.6c0.6-0.1,1-0.9,1.3-1.4c0.2-0.4,0.4-0.7,0.6-1.1c0.1-0.1,0.2-0.5,0.2-0.7   c0-0.9,0-1.8,0-2.7v-0.3l-2.3,0L64.5,60.3L64.5,60.3z"/>
	<path class="st1" d="M64.8,60.2c0,0,0.5,0.8,0.1,2.3s-1.6,2.5-1.6,2.9s0.2,0.6,1.2,0.3c0.9-0.3,1.9-2.8,1.9-2.9c0-0.1,0-2.7,0-2.7   H64.8L64.8,60.2z"/>
	<path class="st2" d="M65.6,60.6c0.1,0.3,0.1,0.6,0.1,0.8c0,0.5,0,1.1-0.2,1.6c-0.1,0.4-0.4,0.9-0.7,1.2c-0.3,0.4-0.6,0.8-0.9,1.1   c-0.2,0.2-0.5,0.6-0.4,0.9c0.1,0.1,0.1,0.3,0.2,0.4c0.3,0.3,0.8,0.2,1.1,0.1c0.6-0.1,1.2-1,1.5-1.5c0.4-0.6,0.8-1.2,1.1-1.8l0-0.1   l0.3-2.9l-2.3-0.4L65.6,60.6L65.6,60.6z"/>
	<path class="st1" d="M65.9,60.6c0,0,0.2,1.4-0.1,2.6c-0.4,1.2-2,2.8-1.9,3.1c0.1,0.3,0.1,0.6,1,0.3c0.9-0.2,2.4-3.1,2.4-3.1   l0.3-2.6L65.9,60.6z"/>
	<path class="st2" d="M68.7,61.1c0,0,0-0.1,0-0.1c0-0.3-0.3-0.3-0.5-0.3c-0.2,0-0.3,0-0.5,0c-0.3,0-0.5,0-0.8,0l-0.4,0l0.2,0.4   c0.1,0.2,0.1,0.5,0.2,0.7c0.1,0.5,0,1-0.2,1.4c-0.1,0.3-0.3,0.5-0.5,0.8c-0.2,0.3-0.5,0.6-0.7,0.9c-0.3,0.5-0.7,0.9-1,1.3   c-0.2,0.3-0.5,0.7-0.4,1c0.3,0.8,1.4,0.6,2,0.3c0.7-0.2,1.3-1.2,1.7-1.8c0.3-0.5,0.6-0.9,0.8-1.4c0.1-0.2,0.4-0.7,0.4-0.9   c0-0.1,0-0.3-0.1-0.5c0-0.3-0.1-0.5-0.1-0.8c0-0.2-0.1-0.5-0.1-0.7C68.7,61.4,68.7,61.2,68.7,61.1L68.7,61.1z"/>
	<path class="st1" d="M67,60.9c0,0,0.5,1.2,0,2.3c-0.5,1.1-2.8,3.4-2.6,3.9s0.7,0.5,1.7,0.2c1-0.3,2.7-3.6,2.7-3.9S68.5,61,68.6,61   C68.6,60.9,67,60.9,67,60.9L67,60.9z"/>
	<path class="st2" d="M55.3,57.5c-0.3-0.3-0.6-0.5-0.9-0.7c-0.7-0.4-1.5-0.7-2.3-0.7c-0.5,0-0.9,0.1-1.3,0.1   c-0.7,0.1-1.3,0.3-1.9,0.4c-0.3,0.1-0.6,0.2-0.9,0.3l-0.1,0l0,0c-0.2,0.1-0.4,0.3-0.5,0.5c-0.2,0.3-0.5,0.7-0.3,1   c0.1,0.2,0.5,0.3,0.7,0.3c0.3,0.1,0.6,0.1,0.9,0.1c0.3,0,0.6,0,0.9,0c0.2,0,0.5,0,0.7,0c0.3,0,0.5-0.1,0.8-0.1c0.3,0,1.2-0.1,1.5,0   c0.2,0.1,0.4,0.2,0.6,0.3c0.3,0.2,0.6,0.4,0.9,0.5c0.3,0.2,0.7,0.4,1,0.6c0.2,0.1,0.6,0.3,0.8,0.3c0.6-0.1,1.1-0.6,0.9-1.2   C56.6,58.6,55.7,57.8,55.3,57.5L55.3,57.5z"/>
	<path class="st1" d="M48.1,57.1c0,0-1,0.8-0.8,1.1c0.2,0.3,1.6,0.3,2.3,0.3c0.7,0,2.5-0.3,3.1-0.1c0.6,0.2,2.6,1.8,3.1,1.7   c0.4-0.1,0.8-0.3,0.6-0.9c-0.1-0.5-1.3-1.6-1.3-1.6s-1.4-1.4-3-1.4S48.1,57.1,48.1,57.1L48.1,57.1z"/>
	<path class="st2" d="M47.2,55.5c-0.2,0.2-0.5,0.4-0.7,0.7c-0.1,0.2-0.3,0.3-0.4,0.5c-0.1,0.2-0.3,0.5-0.1,0.7   c0.4,0.4,2.2,0.4,2.6,0.3c0.4,0,0.8-0.1,1.2-0.2c0.9-0.2,2.4-0.6,3.3-0.2c0.3,0.1,0.5,0.3,0.8,0.5c0.4,0.3,0.7,0.5,1.1,0.8   c0.4,0.3,0.8,0.7,1.2,1c0.2,0.2,0.7,0.5,0.9,0.5c0.5,0.1,1.1-0.1,1.5-0.4l0.2-0.2l-0.1-0.2c-0.3-0.4-0.6-0.8-0.9-1.2   c-0.7-0.8-1.4-1.6-2.3-2.3c-0.9-0.7-2.1-1.3-3.3-1.3c-1.2,0-2.5,0.1-3.7,0.5c-0.3,0.1-0.7,0.2-0.9,0.3   C47.4,55.4,47.3,55.4,47.2,55.5L47.2,55.5L47.2,55.5L47.2,55.5z"/>
	<path class="st1" d="M47.4,55.7c0,0-1.3,1.2-1.1,1.4s2.2,0.4,3.5,0.1c1.3-0.3,2.6-0.6,3.5-0.2s3.4,2.7,4,2.8   c0.6,0.1,1.2-0.3,1.2-0.3s-3-4.7-6.2-4.6S47.4,55.7,47.4,55.7L47.4,55.7z"/>
	<path class="st2" d="M60.4,58.9c-0.1-0.1-0.1-0.2-0.2-0.3c-0.2-0.3-0.4-0.5-0.6-0.8c-0.6-0.7-1.2-1.5-1.9-2.2   c-0.8-0.8-2.1-2-3.2-2.1c-0.6-0.1-1.2-0.1-1.7-0.1c-0.7,0-1.4,0.1-2.1,0.2c-1,0.1-2.1,0.3-3.1,0.5c-0.5,0.1-0.9,0.2-1.4,0.3l-0.1,0   l-0.1,0.1c-0.2,0.2-0.4,0.4-0.6,0.6c-0.2,0.3-0.7,0.7-0.5,1.1c0.1,0.2,0.4,0.3,0.6,0.3c0.3,0,0.6,0,0.9,0c0.9,0,1.7-0.1,2.5-0.3   c0.7-0.1,1.3-0.2,2-0.3c0.5-0.1,1.1-0.1,1.6-0.1c0.4,0,0.8,0.1,1.1,0.2c0.7,0.2,1.5,1,2,1.5c0.5,0.5,0.9,1,1.4,1.4   c0.2,0.2,0.3,0.4,0.5,0.5c0.1,0.1,0.2,0.3,0.3,0.3c0.5,0.3,1.1,0.6,1.7,0.3c0.4-0.2,0.7-0.5,0.9-0.9l0.1-0.2L60.4,58.9L60.4,58.9z"/>
	<path class="st1" d="M46.1,54.7c0,0-1.2,1-1,1.3c0.2,0.3,1.7,0.2,3.7-0.1s3.3-0.7,4.9-0.2c1.5,0.5,3.9,3.6,4.3,3.8   c0.3,0.2,0.9,0.5,1.4,0.3c0.5-0.2,0.8-0.8,0.8-0.8s-3.5-4.8-5.8-5.2C52.1,53.5,46.1,54.7,46.1,54.7L46.1,54.7z"/>
	<path class="st2" d="M60.2,56.2c0-0.2-0.1-0.4-0.2-0.5c-0.2-0.5-0.4-0.9-0.7-1.3c-0.9-1.3-2.2-2.2-3.8-2.4   c-0.8-0.1-1.6-0.2-2.5-0.3c-0.6-0.1-1.3-0.1-1.9-0.1c-0.9,0-1.8,0.1-2.6,0.4c-0.3,0.1-0.6,0.2-0.9,0.3c-0.4,0.1-0.8,0.1-1.2,0.2   c-0.9,0.1-1.8,0.2-2.8,0.3h-0.2l-0.1,0.2c-0.1,0.3-0.1,0.6-0.1,0.8c0,0.5,0.1,1.1,0.6,1.4c0.4,0.3,1.2,0.2,1.7,0.2   c0.9-0.1,1.7-0.3,2.6-0.4c0.7-0.1,1.4-0.3,2.1-0.4c0.3-0.1,0.6-0.1,0.9-0.1c0.2,0,0.4-0.1,0.6,0c0.9,0,1.9,0.2,2.7,0.5   c0.6,0.3,1.1,0.7,1.6,1.1c0.5,0.5,0.9,1.1,1.4,1.7c0.6,0.7,1.2,1.3,1.9,1.8c0.3,0.2,0.7,0.5,1,0.5c0.5,0.1,0.9-0.1,1.3-0.4   c0.1-0.1,0.1-0.1,0.2-0.2c0.3-0.6-0.2-1.5-0.5-2C60.9,57.1,60.5,56.6,60.2,56.2L60.2,56.2z"/>
	<path class="st1" d="M43.6,53c0,0-0.4,1.4,0.4,2c0.7,0.6,6.2-0.9,7.7-0.9c5,0.2,4.8,3,7.9,5.2c0.6,0.4,1.1,0.8,2,0.1   c0.8-0.7-1.5-3.1-1.5-3.1s-0.7-3.5-4.4-4.1c-3.7-0.6-5.6-0.5-6.9,0C47.3,52.7,43.6,53,43.6,53z"/>
	<path class="st2" d="M62.6,56.3c-0.3-0.5-0.7-1.1-1.1-1.6c-0.8-1.1-1.8-2.2-2.9-3c-1.1-0.9-2.4-1.6-3.8-1.6c-1.3-0.1-2.7,0-4,0.1   c-1.6,0.1-3.2,0.3-4.8,0.5c-0.7,0.1-1.4,0.2-2.1,0.3l-1.5-0.4l0,0.4c0,0.5,0.1,1.1,0.2,1.6c0.1,0.4,0.4,0.8,0.7,1   c1.1,0.7,4.7,0.1,6-0.1c1.1-0.2,2.2-0.4,3.3-0.4c0.9,0,1.7,0,2.5,0.3c1.7,0.5,2.9,1.9,4,3.3c0.2,0.3,0.3,0.5,0.5,0.8   c0.2,0.3,0.4,0.7,0.6,1c0.3,0.5,0.6,0.9,0.9,1.4c0.3,0.3,0.6,0.7,1,0.8c0.3,0.1,0.6,0.1,0.8-0.1c0.7-0.3,0.8-1.3,0.8-2   c0-0.3-0.1-0.7-0.3-1C63.3,57.1,62.9,56.7,62.6,56.3L62.6,56.3z"/>
	<path class="st1" d="M42.7,51c0,0-0.1,1.8,0.8,2.3c0.9,0.5,4.3,0.1,5.8-0.1c4.8-0.8,6.9-0.9,10,3.3c0.8,1,1.9,3.6,2.8,3.8   c0.9,0.2,1.3-0.8,1.3-1.8c0-1-1.1-2-1.1-2s-3.5-5.9-7.5-6.1s-10.9,1-10.9,1L42.7,51L42.7,51z"/>
	<path class="st2" d="M41.5,49.3c-0.2,0.5-0.3,1.3,0,1.8c0.1,0.1,0.1,0.2,0.2,0.3c0.3,0.3,0.7,0.5,1,0.5c0.6,0.1,1.2,0.1,1.8,0.1   c0.3,0,0.6,0,0.9-0.1c0.4,0,0.8-0.1,1.2-0.1c0.9-0.1,1.8-0.2,2.8-0.3c0.8-0.1,1.5-0.2,2.3-0.2c0.6,0,1.2-0.1,1.9,0   c2.1,0.1,4.3,1.4,5.9,2.7c0.3,0.3,0.7,0.7,0.9,1c0.4,0.5,0.7,1,1,1.4c0.5,0.7,0.9,1.4,1.4,2c0.2,0.3,0.3,0.5,0.5,0.8   c0.1,0.1,0.2,0.3,0.3,0.5c0.3,0.3,0.4,0.6,0.7,0.9c0.3,0.4,0.8,0.6,1.3,0.7c0.6,0,1.4-0.2,1.9-0.5l0.3-0.2l-5.6-8.3L57.6,49   l-6.1-1.1l-9.9,1.2L41.5,49.3z"/>
	<path class="st1" d="M41.8,49.4c0,0-0.3,1,0,1.6c0.3,0.6,1,0.7,2.7,0.7s6.6-0.9,9-0.7s4.7,1.6,6,2.8c1.4,1.2,3.8,5.3,4.2,5.8   c0.4,0.5,0.9,1.4,1.8,1.4c0.9,0,1.7-0.4,1.7-0.4l-5.4-8l-4.4-3.3l-6-1.1L41.8,49.4L41.8,49.4z"/>
	<path class="st2" d="M44.9,47.6l-3.6,0.1L41.2,48c-0.2,0.4-0.3,1.1-0.2,1.6c0.3,0.9,1.4,1,2.2,1c0.3,0,0.6-0.1,0.9-0.1   c0.5-0.1,1-0.1,1.4-0.2c1.3-0.2,2.6-0.3,3.9-0.5c1-0.1,2.1-0.2,3.1-0.3c0.4,0,0.9-0.1,1.3-0.1c0.3,0,0.7,0,1,0   c1.7,0.2,3.7,1.4,5,2.4c1.1,0.9,2.2,2,2.9,3.1c0.4,0.6,0.7,1.2,1.1,1.9c0.6,1,1.2,2.1,1.8,3.1c0.3,0.5,1,1.6,1.5,1.8   c0.4,0.2,0.9,0.2,1.3,0.1c0.2,0,0.4-0.1,0.6-0.2l0.3-0.1L67,56.9L61,49l-6.2-3L44.9,47.6L44.9,47.6z"/>
	<path class="st1" d="M41.5,48.1c0,0-0.3,0.9-0.2,1.4c0.1,0.5,0.8,0.8,1.9,0.8s9-1.3,11.6-1.1c2.6,0.3,6.5,3,8.1,5.7   c1.6,2.6,3.3,6.3,4.3,6.6c0.9,0.3,1.7,0,1.7,0l-2.1-4.3l-6-7.9l-6-2.9l-9.8,1.6L41.5,48.1L41.5,48.1z"/>
	<path class="st2" d="M41,47c-0.2-0.1-0.4,0-0.5,0.1c-0.1,0.1-0.1,0.5,0,0.6c0.1,0.3,0.2,0.6,0.5,0.8c0.3,0.3,0.7,0.3,1,0.4   c0.6,0.1,1.2,0.1,1.8,0c0.6,0,1.3-0.1,1.9-0.3c0.9-0.1,1.7-0.3,2.5-0.5c1-0.2,2.1-0.4,3.1-0.5c2.4-0.3,4,0,6.2,1   c1,0.4,2,1.1,2.8,1.8c0.7,0.6,1.4,1.2,2,1.8c0.5,0.5,1,1,1.4,1.6c0.3,0.4,0.7,0.9,0.9,1.4c0.4,0.6,0.8,1.2,1.2,1.8   c0.4,0.6,0.8,1.2,1.1,1.9c0.3,0.5,0.5,1,0.8,1.5c0.4,0.9,0.8,2,0.3,3c-0.1,0.3-0.3,0.5-0.5,0.7c-0.3,0.3-0.5,0.6-0.8,0.9   c-0.3,0.4-0.7,0.9-0.9,1.3c-0.1,0.1-0.1,0.3-0.1,0.4c-0.2,0.8,0,1.9,0.7,2.4c0.3,0.2,0.5,0.2,0.8,0.2c0.3,0,0.5-0.1,0.8-0.3   c0.4-0.3,0.5-0.8,0.6-1.3c0.1-0.5,0.2-1.1,0.3-1.6c0.1-0.5,0.3-0.6,0.6-0.9c0.2-0.2,0.4-0.4,0.5-0.7c0.2-0.4,0.3-1,0.3-1.4   c0.2-2.3-0.9-5.4-2.2-7.3c-3.2-5.1-7.4-10.4-13.9-10.9c-0.7-0.1-1.5,0-2.2,0.1c-0.8,0.1-1.6,0.3-2.4,0.5c-0.9,0.2-1.7,0.5-2.6,0.7   c-0.7,0.2-1.4,0.4-2.1,0.6C43.7,47.2,42.3,47.2,41,47L41,47z"/>
	<path class="st1" d="M40.9,47.3c0,0,1.9,0.4,4.1-0.1c2.2-0.5,6.5-2.1,9.1-1.9c6.3,0.5,10.4,5.6,13.7,10.8c1.1,1.8,2.3,4.9,2.1,7.1   c-0.2,2.3-1,1.5-1.4,3s-0.3,2.9-1.4,2.9c-1.2,0-1.6-1.5-1.1-2.6c0.5-1.1,1.8-2.2,2.2-2.9c0.4-0.8,0.4-1.8-0.3-3.3   c-0.7-1.5-3-5.2-4.1-6.6c-1-1.4-3.9-4.2-6.3-5.3s-4.1-1.3-6.3-1c-2.3,0.3-6,1.1-7.5,1.2c-1.5,0.1-2.2,0-2.6-0.3   c-0.4-0.3-0.4-0.9-0.4-1C40.8,47.2,40.9,47.3,40.9,47.3L40.9,47.3z"/>
	<path class="st2" d="M80,78.9c0.2,0.1,0.5,0.3,0.7,0.3c0.3,0.1,0.7,0.2,1,0.2l0.5,0.1c0.1,0,0.1,0.1,0.1,0.1c0,0.1,0,0.1-0.1,0.2   l-0.4,0.3c-0.3,0.2-0.5,0.4-0.8,0.6c-0.7,0.5-1.3,0.9-2,1.2c-0.7,0.3-1.4,0.6-2.1,0.8c-0.3,0.1-0.6,0.2-0.9,0.2L75.4,83   c-0.1,0-0.1,0-0.1-0.1s0-0.1,0-0.2l0.4-0.5l0,0c0.1-0.2,0.3-0.5,0.3-0.8c0-0.2,0.1-0.5,0.1-0.7v-0.2c0-0.1,0-0.1,0.1-0.1l0.1-0.1   c0.6-0.2,1.2-0.4,1.7-0.7c0.6-0.3,1.1-0.6,1.6-1l0.1-0.1c0.1-0.1,0.1,0,0.2,0L80,78.9L80,78.9L80,78.9z M80,78.9L80,78.9L80,78.9   L80,78.9z"/>
	<path class="st1" d="M79.7,79.2c0,0,0.2,0.2,0.8,0.4c0.6,0.2,1.1,0.3,1.1,0.3s-1.2,1-2.8,1.8c-1.6,0.8-2.9,1-2.9,1s0.3-0.4,0.4-1   c0.1-0.6,0.1-0.8,0.1-0.8C77.8,80.4,78.5,80.1,79.7,79.2z"/>
	<path class="st2" d="M65.8,78.9c-0.2,0.1-0.5,0.3-0.7,0.3c-0.3,0.1-0.7,0.2-1,0.2l-0.5,0.1c-0.1,0-0.1,0.1-0.1,0.1   c0,0.1,0,0.1,0.1,0.2l0.4,0.3c0.3,0.2,0.5,0.4,0.8,0.6c0.7,0.5,1.3,0.9,2,1.2c0.7,0.3,1.4,0.6,2.1,0.8c0.3,0.1,0.6,0.2,0.9,0.2   l0.6,0.1c0.1,0,0.1,0,0.1-0.1s0-0.1,0-0.2l-0.4-0.5l0,0c-0.1-0.2-0.3-0.5-0.3-0.8c0-0.2-0.1-0.5-0.1-0.7v-0.2c0-0.1,0-0.1-0.1-0.1   l-0.1-0.1c-0.6-0.2-1.2-0.4-1.7-0.7c-0.6-0.3-1.1-0.6-1.6-1l-0.1-0.1c-0.1-0.1-0.1,0-0.2,0L65.8,78.9L65.8,78.9L65.8,78.9z    M65.8,78.9L65.8,78.9L65.8,78.9L65.8,78.9z"/>
	<path class="st1" d="M66.1,79.2c0,0-0.2,0.2-0.8,0.4c-0.6,0.2-1.1,0.3-1.1,0.3s1.2,1,2.8,1.8c1.6,0.8,2.9,1,2.9,1s-0.3-0.4-0.4-1   c-0.1-0.6-0.1-0.8-0.1-0.8C68,80.4,67.3,80.1,66.1,79.2z"/>
	<path class="st2" d="M73.5,75.1c0.7,0.7,1.6,1.1,2.6,0.9c0.5-0.1,0.9-0.4,1.3-0.8l0.5-0.6c0.1-0.1,0.1-0.1,0.2,0   c0.1,0.1,0.1,0.1,0.1,0.2l-0.2,0.8c-0.6,2.2-2.6,3.7-4.8,3.7c-2.2,0-4.2-1.5-4.8-3.7l-0.2-0.8c0-0.1,0-0.2,0.1-0.2   c0.1-0.1,0.2,0,0.2,0l0.5,0.6c0.3,0.4,0.8,0.7,1.3,0.8c1,0.2,1.9-0.3,2.6-0.9l0.1-0.1c0,0,0.1-0.1,0.1-0.1c0.1,0,0.1,0,0.1,0.1   L73.5,75.1L73.5,75.1z"/>
	<path class="st1" d="M77.6,75.5c-0.5,2-2.3,3.4-4.4,3.4c-2.1,0-3.9-1.4-4.4-3.4c0.4,0.5,0.9,0.8,1.5,0.9c1,0.2,2.1-0.2,2.9-1   c0.8,0.9,1.9,1.2,2.9,1C76.7,76.2,77.2,75.9,77.6,75.5L77.6,75.5z"/>
	<path class="st5" d="M42.3,37l0.7-1.2l2.6,1.5c0.3,0.1,0.5,0.3,0.7,0.5c0.2,0.2,0.3,0.4,0.4,0.7c0.1,0.3,0.1,0.5,0.1,0.7   c0,0.3-0.1,0.6-0.3,0.9c-0.1,0.2-0.2,0.4-0.4,0.6c-0.2,0.2-0.3,0.3-0.5,0.5c-0.2,0.1-0.4,0.2-0.6,0.2s-0.5,0-0.7,0   c-0.3-0.1-0.6-0.2-0.8-0.3l-2.6-1.5l0.7-1.2l2.6,1.5c0.2,0.1,0.5,0.2,0.7,0.1s0.4-0.2,0.5-0.4c0.1-0.2,0.1-0.4,0.1-0.6   s-0.2-0.4-0.5-0.5L42.3,37z M43.8,34.4L43.8,34.4l3.9,3.1l0.8-1l-2.1-1.7l3.2,0.4l0.8-1l-3.9-3.1l-0.8,1l2.1,1.7l-3.2-0.4   L43.8,34.4z M47.6,29.9L47.6,29.9l1-0.9l3.4,3.6l-1,0.9L47.6,29.9z M49.3,28.3L49.3,28.3l1.1-0.9l3,2.2L52,26.2l1.1-0.9l1.8,4.9   l-1.2,0.9L49.3,28.3z M54.2,24.6L54.2,24.6l2.4,4.3l3.3-1.8l-0.5-1l-2.1,1.1l-0.5-0.9l1.9-1l-0.5-0.9l-1.9,1l-0.4-0.7l2-1.1   l-0.5-0.9L54.2,24.6z M60.5,26.9L60.5,26.9l-1.8-4.6l2.1-0.8c0.4-0.1,0.7-0.2,0.9-0.2s0.5,0.1,0.7,0.2c0.2,0.2,0.4,0.4,0.5,0.7   c0.1,0.3,0.1,0.5,0.1,0.7s-0.1,0.4-0.2,0.6c-0.1,0.1-0.2,0.2-0.4,0.3c0.2,0,0.3,0,0.4,0.1c0.1,0,0.2,0.1,0.3,0.2   c0.1,0.1,0.2,0.2,0.3,0.2l1.1,1.1l-1.4,0.6l-1.2-1.2c-0.2-0.1-0.3-0.2-0.4-0.3c-0.1,0-0.2,0-0.3,0l-0.1,0.1l0.7,1.9L60.5,26.9   L60.5,26.9z M60.7,23.6L60.7,23.6l0.5-0.2c0.1,0,0.2-0.1,0.3-0.2c0.1-0.1,0.1-0.1,0.1-0.2c0-0.1,0-0.2,0-0.3   c-0.1-0.1-0.1-0.3-0.3-0.3c-0.1-0.1-0.3,0-0.5,0.1l-0.6,0.2L60.7,23.6z M64.4,23.7L64.4,23.7c0.1,0.5,0.4,0.9,0.7,1.1   c0.3,0.3,0.9,0.3,1.6,0.1c0.4-0.1,0.8-0.2,1-0.4c0.3-0.2,0.4-0.5,0.5-0.7c0.1-0.3,0.1-0.6,0.1-0.9c-0.1-0.3-0.2-0.5-0.3-0.7   c-0.2-0.2-0.4-0.3-0.7-0.4c-0.3-0.1-0.7-0.1-1.3-0.2c-0.3,0-0.4,0-0.5-0.1s-0.1-0.1-0.1-0.2c0-0.1,0-0.2,0.1-0.3   c0.1-0.1,0.2-0.1,0.3-0.2c0.2,0,0.3,0,0.5,0.1c0.1,0.1,0.2,0.2,0.3,0.4l1.2-0.3c-0.2-0.5-0.4-0.8-0.8-1c-0.3-0.2-0.8-0.2-1.3-0.1   c-0.5,0.1-0.8,0.2-1,0.4c-0.2,0.2-0.4,0.4-0.5,0.7c-0.1,0.3-0.1,0.5-0.1,0.7c0.1,0.4,0.3,0.7,0.6,0.9c0.3,0.2,0.8,0.3,1.4,0.3   c0.4,0,0.6,0.1,0.7,0.1s0.2,0.2,0.2,0.3s0,0.3-0.1,0.4c-0.1,0.1-0.2,0.2-0.4,0.3c-0.3,0.1-0.5,0-0.7-0.2c-0.1-0.1-0.2-0.3-0.3-0.5   L64.4,23.7z M69.1,19.5L69.1,19.5l1.4-0.1l0.3,5l-1.4,0.1L69.1,19.5z M71.5,19.2L71.5,19.2l4.1,0.1l0,1.2l-1.4,0l-0.1,3.7l-1.4,0   l0.1-3.7l-1.4,0L71.5,19.2z M78.6,23.8L78.6,23.8l0.1,0.9l1.4,0.2l-1-5.1l-1.5-0.2l-2.3,4.7l1.4,0.2l0.3-0.8L78.6,23.8L78.6,23.8z    M78.4,22.7L78.4,22.7l-1-0.1l0.7-1.7L78.4,22.7z M80.9,23.4L80.9,23.4l1.3,0.3c-0.1,0.2-0.1,0.4,0,0.6c0.1,0.2,0.2,0.4,0.5,0.5   c0.2,0.1,0.3,0.1,0.5,0c0.1-0.1,0.2-0.2,0.3-0.3s0-0.3,0-0.4c-0.1-0.1-0.3-0.3-0.6-0.5c-0.5-0.3-0.9-0.7-1-1   c-0.2-0.3-0.2-0.7-0.1-1c0.1-0.3,0.2-0.5,0.4-0.6c0.2-0.2,0.4-0.3,0.7-0.3c0.3,0,0.7,0,1.1,0.1c0.5,0.2,0.9,0.4,1.1,0.7   c0.2,0.3,0.3,0.7,0.1,1.2l-1.2-0.3c0-0.2,0-0.4-0.1-0.5c-0.1-0.1-0.2-0.2-0.4-0.3c-0.1-0.1-0.3-0.1-0.4,0c-0.1,0.1-0.2,0.1-0.2,0.2   c0,0.1,0,0.1,0,0.2c0,0.1,0.2,0.2,0.4,0.3c0.5,0.3,0.9,0.6,1.1,0.8c0.2,0.2,0.3,0.5,0.4,0.7c0.1,0.3,0,0.5-0.1,0.8   c-0.1,0.3-0.3,0.6-0.5,0.8c-0.2,0.2-0.5,0.3-0.8,0.4c-0.3,0.1-0.7,0-1.1-0.1c-0.7-0.2-1.2-0.5-1.3-0.9   C80.8,24.4,80.8,23.9,80.9,23.4L80.9,23.4z M90.7,23.9L90.7,23.9l1.2,0.7l-1.3,2.4c-0.3,0.5-0.5,0.9-0.7,1.1   c-0.2,0.2-0.5,0.3-0.9,0.4c-0.3,0.1-0.7,0-1-0.2c-0.4-0.2-0.7-0.5-0.8-0.7c-0.1-0.2-0.2-0.5-0.2-0.8c0-0.3,0.1-0.6,0.3-1l1.2,0.5   c-0.1,0.2-0.2,0.3-0.2,0.5s0,0.2,0,0.3c0,0.1,0.1,0.1,0.2,0.2c0.1,0.1,0.3,0.1,0.4,0c0.1-0.1,0.3-0.3,0.4-0.5L90.7,23.9z    M92.7,30.3L92.7,30.3l-0.3,0.8l1.1,0.9l1.8-4.9l-1.2-0.9L89.8,29l1.1,0.9l0.7-0.5L92.7,30.3L92.7,30.3z M93.2,29.3L93.2,29.3   l-0.8-0.6l1.5-1.1L93.2,29.3z M97.4,28.7L97.4,28.7l1.2,1.3L97,32.7l2.7-1.6l1.2,1.3l-3.6,3.5L96.5,35l2.7-2.6l-3.3,2l-0.7-0.7   l2.1-3.3L94.6,33l-0.8-0.8L97.4,28.7L97.4,28.7z M101.9,33.9L101.9,33.9l-4.2,2.7l1.3,2c0.1,0.1,0.2,0.3,0.4,0.5   c0.1,0.2,0.3,0.3,0.4,0.3c0.2,0.1,0.4,0.1,0.7,0.1c0.2,0,0.5-0.1,0.7-0.3c0.3-0.2,0.5-0.4,0.5-0.6c0.1-0.2,0.1-0.5,0-0.8   c0.2,0.1,0.4,0.2,0.5,0.2c0.3,0,0.5-0.1,0.8-0.2c0.3-0.2,0.5-0.5,0.5-0.8c0.1-0.3,0-0.7-0.2-1L101.9,33.9L101.9,33.9z M101,36.1   L101,36.1l0.8-0.5l0.3,0.5c0.1,0.2,0.2,0.3,0.1,0.4c0,0.1-0.1,0.2-0.2,0.3c-0.1,0.1-0.3,0.1-0.4,0.1s-0.2-0.1-0.3-0.3L101,36.1   L101,36.1z M99.4,37.2L99.4,37.2l0.9-0.5l0.4,0.6c0.1,0.2,0.2,0.4,0.2,0.5c0,0.1-0.1,0.2-0.2,0.3c-0.1,0.1-0.3,0.1-0.4,0.1   c-0.1,0-0.3-0.1-0.4-0.3L99.4,37.2z M104.6,38.4L104.6,38.4l0.7,1.2l-4.4,2.3l-0.7-1.2L104.6,38.4z"/>
</g>
</svg>